<?xml version="1.0" encoding="UTF-8" standalone="no"?>
<!-- Created with Inkscape (http://www.inkscape.org/) -->

<svg
   width="795"
   height="928"
   viewBox="0 0 210.34375 245.53333"
   version="1.1"
   id="svg1"
   xml:space="preserve"
   inkscape:export-filename="settingsclosed.svg"
   inkscape:export-xdpi="96"
   inkscape:export-ydpi="96"
   sodipodi:docname="settingsclosed.svg"
   inkscape:version="1.4.2 (ebf0e940, 2025-05-08)"
   xmlns:inkscape="http://www.inkscape.org/namespaces/inkscape"
   xmlns:sodipodi="http://sodipodi.sourceforge.net/DTD/sodipodi-0.dtd"
   xmlns="http://www.w3.org/2000/svg"
   xmlns:svg="http://www.w3.org/2000/svg"><sodipodi:namedview
     id="namedview1"
     pagecolor="#ffffff"
     bordercolor="#000000"
     borderopacity="0.25"
     inkscape:showpageshadow="true"
     inkscape:pageopacity="0.0"
     inkscape:pagecheckerboard="false"
     inkscape:deskcolor="#d1d1d1"
     inkscape:document-units="mm"
     showguides="true"
     showborder="true"
     inkscape:clip-to-page="true"
     inkscape:zoom="0.59544435"
     inkscape:cx="-75.573813"
     inkscape:cy="398.02208"
     inkscape:window-width="2336"
     inkscape:window-height="1437"
     inkscape:window-x="0"
     inkscape:window-y="45"
     inkscape:window-maximized="1"
     inkscape:current-layer="g5"><sodipodi:guide
       position="1.5633443,95.381217"
       orientation="1,0"
       id="guide4"
       inkscape:locked="false" /><sodipodi:guide
       position="49.671607,142.98885"
       orientation="0,-1"
       id="guide5"
       inkscape:locked="false" /><inkscape:page
       x="-1e-06"
       y="-6.9999999e-07"
       width="195.28085"
       height="245.79791"
       id="page2"
       margin="0"
       bleed="0" /><sodipodi:guide
       position="-11.174888,-0.090323802"
       orientation="0,-1"
       id="guide1"
       inkscape:locked="false" /></sodipodi:namedview><defs
     id="defs1"><inkscape:path-effect
       effect="mirror_symmetry"
       start_point="59.496297,93.53683"
       end_point="59.475003,135.76571"
       center_point="59.48565,114.65127"
       id="path-effect6"
       is_visible="true"
       lpeversion="1.2"
       lpesatellites=""
       mode="free"
       discard_orig_path="false"
       fuse_paths="false"
       oposite_fuse="false"
       split_items="false"
       split_open="false"
       link_styles="false" /></defs><g
     inkscape:label="Layer 1"
     inkscape:groupmode="layer"
     id="layer1"
     transform="translate(-11.410155,-7.3727272)"><g
       id="g5"><path
         style="display:inline;fill:#000000"
         d="m 179.7102,216.51732 c -0.26551,-0.14404 -0.48274,-0.37855 -0.48274,-0.52113 v -0.25924 l -0.92473,0.10869 -0.92473,0.10868 -0.65626,-0.2742 -0.65625,-0.2742 -0.18168,-0.47784 c -0.59103,-1.55453 0.83644,-2.69888 3.36662,-2.69888 1.76303,0 1.7901,-0.0159 3.19808,-1.87939 0.64149,-0.84901 1.35816,-1.78064 1.59261,-2.07029 0.23444,-0.28964 0.47925,-0.73988 0.544,-1.00052 l 0.11774,-0.47391 -0.41178,-0.40739 c -0.22648,-0.22406 -2.30763,-1.21535 -4.62477,-2.20285 -2.31714,-0.98751 -4.46404,-1.94895 -4.77089,-2.13654 l -0.5579,-0.34108 -1.28355,-2.59948 c -0.70595,-1.42972 -1.29471,-2.62302 -1.30834,-2.6518 -0.0136,-0.0288 -0.61862,0.55318 -1.34441,1.29322 l -1.31962,1.34554 -0.23719,-0.0752 c -0.39294,-0.12458 -1.33606,-1.66288 -1.84915,-3.0161 l -0.48239,-1.27224 -2.06973,1.40785 -2.06973,1.40785 -0.26667,-0.26666 c -0.36652,-0.36653 -0.66179,-2.31247 -0.53836,-3.54806 l 0.10196,-1.02072 -0.39346,0.12165 c -0.21641,0.0669 -0.66994,0.25908 -1.00786,0.42706 -0.33792,0.16798 -1.5004,0.67758 -2.58329,1.13245 -1.0829,0.45486 -2.16906,0.98447 -2.41369,1.1769 l -0.44479,0.34987 0.0148,0.90885 c 0.008,0.49986 0.0761,1.38281 0.15089,1.96209 0.0748,0.57929 0.0665,1.56128 -0.0186,2.18221 l -0.15468,1.12896 -0.74226,1.50416 -0.74225,1.50415 v 1.66764 1.66764 l 0.67509,1.40433 0.6751,1.40433 0.083,0.96548 0.083,0.96547 -0.33537,0.60554 -0.33537,0.60553 -0.67481,0.3502 -0.67482,0.35019 -1.41559,-0.002 c -0.77858,-0.001 -2.52273,-0.067 -3.8759,-0.14633 l -2.46031,-0.1442 -1.05051,0.31677 -1.05052,0.31676 -1.31656,0.0149 -1.31655,0.0148 -0.84145,-0.32463 -0.84144,-0.32462 -1.11884,0.30285 -1.11884,0.30286 -0.83779,-0.12564 -0.8378,-0.12563 -0.58109,-0.58109 -0.58109,-0.58109 v -0.73727 -0.73728 l 0.6144,-0.61439 c 0.75567,-0.75568 0.79286,-0.65902 -0.3522,-0.91527 l -0.96659,-0.21632 -0.61328,-0.57839 -0.61328,-0.5784 v -0.45375 c 0,-0.71921 0.36074,-1.3252 1.0395,-1.74623 l 0.62814,-0.38963 1.05325,0.006 1.05325,0.006 0.61439,0.3239 c 0.33792,0.17814 1.00936,0.63797 1.4921,1.02184 l 0.8777,0.69794 1.15958,-0.0953 1.15958,-0.0953 1.56131,-0.59956 c 0.85872,-0.32975 2.11426,-0.76618 2.7901,-0.96983 2.2719,-0.68461 2.19195,-0.33968 2.00633,-8.65553 l -0.14139,-6.33499 0.17688,-0.46523 c 0.27834,-0.7321 0.47305,-0.89449 5.55811,-4.63545 l 4.80891,-3.5378 -0.59217,-0.20501 c -1.78466,-0.61787 -3.21656,-1.67635 -3.09831,-2.29034 l 0.0609,-0.31597 0.61331,-0.20401 c 0.33733,-0.11221 1.28476,-0.3308 2.1054,-0.48575 l 1.49209,-0.28174 2.63313,-1.29257 c 1.44822,-0.71091 3.23118,-1.55015 3.96213,-1.86496 l 1.329,-0.57239 -0.0124,-0.82838 -0.0124,-0.82838 0.48307,-0.73032 0.48307,-0.73033 0.42084,-0.10562 0.42085,-0.10563 0.28763,-1.14507 c 0.1582,-0.62978 0.52239,-1.87793 0.80931,-2.77365 l 0.52169,-1.62858 0.83211,-0.20278 c 3.64983,-0.8894 9.00082,-3.05026 8.58447,-3.46661 -0.0472,-0.0472 -1.60693,0.43642 -3.46616,1.07462 -3.84767,1.32074 -6.95509,2.01301 -9.66824,2.15391 l -1.87122,0.0972 -0.58635,-0.36325 c -1.06101,-0.6573 -2.95749,-3.48132 -5.32905,-7.9354 -1.82515,-3.42786 -1.59316,-3.10229 -1.97068,-2.76571 -0.16955,0.15116 -0.66374,0.35287 -1.0982,0.44823 l -0.78994,0.17339 0.4884,0.0188 0.48839,0.0188 0.14577,0.39406 0.14577,0.39405 -0.17645,0.50618 c -0.097,0.27839 -0.38403,0.6253 -0.63773,0.77091 l -0.46127,0.26473 0.037,1.44887 0.037,1.44887 0.27916,0.67756 c 0.15355,0.37266 0.63219,1.00472 1.06366,1.40458 l 0.7845,0.72701 v 0.64215 c 0,0.87398 -0.40182,1.58366 -1.04829,1.85144 l -0.53821,0.22293 -0.70542,-0.0946 c -1.28579,-0.17246 -2.60015,-1.52003 -3.35143,-3.43612 l -0.38853,-0.9909 -0.004,-1.5043 -0.004,-1.5043 0.48786,-0.99716 c 0.26833,-0.54844 0.56105,-0.99716 0.6505,-0.99716 0.0894,0 0.16263,-0.19176 0.16263,-0.42612 v -0.42611 l 0.46252,-0.36382 c 0.25439,-0.2001 0.66911,-0.37299 0.92159,-0.38419 l 0.45907,-0.0204 -0.29225,-0.0774 c -0.39569,-0.1048 -0.52693,-0.51296 -0.39355,-1.22394 0.15055,-0.80251 0.33574,-0.86863 0.96052,-0.34291 0.43224,0.3637 1.94502,1.15835 2.20517,1.15835 0.28767,0 -0.0455,-0.35238 -0.50506,-0.53416 -0.31378,-0.12412 -0.92597,-0.47387 -1.36044,-0.77723 -0.43446,-0.30335 -1.11905,-0.73568 -1.52131,-0.96071 -0.40225,-0.22504 -0.86736,-0.66168 -1.03356,-0.97031 l -0.3022,-0.56114 0.086,-0.58622 0.086,-0.58623 -0.42608,-0.62785 -0.42608,-0.62786 0.10302,-0.5151 c 0.0567,-0.28331 0.23623,-0.66231 0.39905,-0.84222 l 0.29603,-0.3271 -0.0489,-0.79598 -0.0489,-0.79597 0.32093,-0.35462 c 0.17651,-0.19505 0.52909,-0.46227 0.78351,-0.59384 0.25442,-0.13156 0.51539,-0.44961 0.57994,-0.70676 0.0645,-0.25716 0.31077,-0.75221 0.54719,-1.10013 0.5827,-0.85752 0.54939,-1.15378 -0.037,-0.32956 -0.68986,0.96958 -1.36954,0.36516 -1.5791,-1.40426 l -0.10137,-0.85587 1.55642,-0.47501 c 0.85603,-0.26125 1.60954,-0.47401 1.67446,-0.47279 0.21602,0.004 0.53363,1.25027 0.44012,1.72689 l -0.0921,0.4696 0.45794,0.48256 0.45794,0.48256 0.0762,1.05342 0.0762,1.05343 h 0.46941 c 0.25817,0 0.89694,0.25672 1.41949,0.5705 l 0.95008,0.57051 0.49037,0.94164 0.49036,0.94164 v 2.14691 2.14691 l 1.11844,1.56329 c 1.27426,1.78108 2.96304,3.55517 4.80377,5.04643 l 1.2659,1.02556 1.8916,-0.63858 c 1.04039,-0.35122 2.5433,-0.88555 3.33982,-1.18739 l 1.44822,-0.54881 v -0.31295 -0.31296 l -0.65828,-0.10254 c -4.95342,-0.77161 -7.47484,-1.9724 -8.29393,-3.94987 l -0.21866,-0.52789 0.23477,-0.28287 0.23476,-0.28287 0.88373,0.10804 c 0.48605,0.0594 1.06147,0.15651 1.2787,0.21574 l 0.39497,0.10769 v -0.63836 -0.63835 l 0.46033,-0.72921 0.46033,-0.72922 -0.31834,-0.23277 c -0.44518,-0.32552 -0.96584,-0.2839 -1.48003,0.1183 -0.8184,0.64017 -1.51102,0.27993 -1.36569,-0.7103 l 0.079,-0.53798 -0.58789,-0.24564 c -0.92965,-0.38843 -0.87503,-1.18021 0.15952,-2.31257 l 0.35032,-0.38345 -1.79441,-0.90048 c -0.98693,-0.49526 -1.98325,-1.08931 -2.21404,-1.3201 l -0.41962,-0.41962 v -0.5416 c 0,-1.21338 1.36243,-2.85051 2.96271,-3.56006 l 0.81142,-0.35977 1.22879,-0.0719 1.22879,-0.0719 1.61891,0.41624 1.61892,0.41623 1.27998,-1.25126 1.27999,-1.25127 1.31408,-0.64074 1.31409,-0.64073 1.14101,-0.17793 c 0.62756,-0.0979 1.7038,-0.17852 2.39163,-0.17925 l 1.25061,-0.001 0.68034,-0.62583 c 0.83738,-0.77029 3.22758,-1.96433 4.23505,-2.11565 l 0.74605,-0.11205 v 0.27227 c 0,0.14975 -0.32504,0.87488 -0.72232,1.61141 -0.8337,1.54563 -0.8248,1.59668 0.2122,1.21717 l 0.77343,-0.28305 2.01873,-0.0739 2.01872,-0.0739 0.86612,0.3112 c 1.15715,0.41577 1.16713,0.61652 0.0661,1.32845 -0.5127,0.33149 -1.12965,0.81729 -1.37102,1.07955 l -0.43886,0.47684 0.30236,0.20528 c 0.16629,0.11291 0.94185,0.5557 1.72347,0.98399 1.80005,0.98635 3.60804,2.49925 4.27401,3.57643 l 0.51655,0.83549 -0.18007,0.18007 -0.18007,0.18007 -1.2094,-0.16524 c -1.47456,-0.20146 -1.43998,-0.23156 -0.68316,0.59469 0.76366,0.83373 1.49248,2.25919 1.49248,2.91907 v 0.49216 l -1.88706,0.003 -1.88707,0.003 -1.11606,0.26309 c -1.18459,0.27926 -4.23794,1.61632 -4.23794,1.85581 0,0.0782 0.50079,-0.0463 1.11287,-0.27667 5.95262,-2.24056 16.49345,0.0329 18.6409,4.02045 l 0.33614,0.62416 -0.28551,0.28551 -0.28551,0.2855 -1.49234,-0.22202 -1.49234,-0.22202 -1.53895,0.096 -1.53895,0.096 -2.64683,1.32925 c -3.02463,1.51899 -3.58814,1.67982 -5.90636,1.68574 l -1.67966,0.004 -0.95346,-0.28305 c -1.01337,-0.30083 -2.75385,-1.12526 -3.52589,-1.67013 -0.73366,-0.51779 -0.71928,-0.41412 0.13863,0.99896 1.09268,1.7998 1.92574,3.90703 2.3655,5.98353 l 0.36617,1.72903 -0.0913,2.63311 -0.0913,2.63312 -0.43663,1.84318 c -0.24014,1.01375 -0.6844,2.52373 -0.98724,3.35551 l -0.55062,1.51232 0.38339,0.6498 0.38339,0.6498 -0.21649,0.7343 c -0.11908,0.40387 -0.36419,0.89442 -0.54469,1.0901 l -0.32819,0.35579 0.46049,1.39962 0.4605,1.39962 0.0465,2.47492 0.0465,2.47492 0.2761,0.66081 c 0.15186,0.36345 0.72568,1.36999 1.27516,2.23676 l 0.99905,1.57594 -0.18228,0.29125 c -0.36521,0.5835 -2.16698,0.41059 -4.14044,-0.39735 l -1.00936,-0.41323 v 0.66713 c 0,1.05716 -0.49784,3.37757 -0.7866,3.66633 l -0.2631,0.2631 -0.83559,-0.42675 c -0.45958,-0.23472 -0.89484,-0.45491 -0.96725,-0.48933 -0.0724,-0.0344 -0.13166,0.36997 -0.13166,0.89863 v 0.96119 l 1.27267,0.30727 c 0.69997,0.169 1.61233,0.46453 2.02747,0.65674 l 0.75479,0.34948 0.91285,1.05389 c 2.74767,3.17219 3.35751,3.67222 5.28926,4.33684 3.52338,1.21222 3.72505,3.14498 0.6415,6.1481 l -1.53206,1.4921 -1.09591,1.98156 c -0.60275,1.08986 -1.33432,2.25309 -1.62571,2.58497 l -0.5298,0.60341 -0.64384,0.17882 c -1.00259,0.27847 -1.68171,0.21531 -2.32161,-0.21592 l -0.58867,-0.39671 -0.7836,0.39671 -0.78359,0.39671 -0.89184,-0.007 c -0.49052,-0.004 -1.10908,-0.12488 -1.37458,-0.26892 z m -43.32986,-3.30446 0.20344,-0.24513 -0.84023,-0.075 c -0.99161,-0.0885 -1.13591,-0.0209 -0.67473,0.31632 0.43423,0.31752 1.04969,0.31932 1.31152,0.004 z m 44.27857,-35.30195 c -0.0333,-0.0966 -0.92249,-0.35566 -1.97587,-0.57582 -1.05337,-0.22015 -3.07913,-0.74756 -4.50168,-1.17202 -2.32678,-0.69426 -2.92909,-0.81483 -2.64342,-0.52916 0.98181,0.98181 9.39951,3.08324 9.12097,2.277 z m -8.62864,-25.1486 c 0,-1.72444 -2.03494,-2.11212 -2.31709,-0.44144 l -0.0527,0.31212 0.70216,0.10675 c 1.0702,0.16269 1.66764,0.17078 1.66764,0.0226 z m 4.21299,-6.6288 c 1.43662,-0.73816 1.97819,-2.47627 1.22908,-3.94463 l -0.35078,-0.6876 -0.76177,-0.44643 -0.76177,-0.44642 -0.68674,0.003 -0.68674,0.003 -0.69698,0.39476 c -0.38333,0.21711 -0.87704,0.66196 -1.09713,0.98854 l -0.40016,0.5938 v 1.03121 1.03121 l 0.7102,0.77047 0.7102,0.77048 0.65025,0.17466 c 0.71671,0.19251 1.47012,0.10958 2.14234,-0.23582 z M 13.508283,22.723816 c 0,-0.02021 0,0 -2.065289,-0.02564 -0.03284,-1.97305 -0.01703,-0.978893 -0.03284,-1.97305 V 14.952592 9.1800567 L 11.808621,8.5835886 C 12.027777,8.2555311 12.48199,7.8490045 12.817982,7.6801962 l 0.610895,-0.3069241 75.046557,-2.728e-4 75.046556,-2.728e-4 0.59809,0.3207602 c 0.32895,0.1764181 0.74243,0.5899015 0.91885,0.918852 l 0.32076,0.5980919 -6.5e-4,5.8833654 -6.6e-4,5.883366 -0.34103,0.559306 c -0.18757,0.307617 -0.523,0.663088 -0.7454,0.789935 l -0.40436,0.230629 -25.54123,0.08777 -25.54123,0.08777 -0.047,3.949675 -0.047,3.949675 1.10021,0.419125 c 6.05013,2.304785 10.16671,7.539887 11.02874,14.025351 l 0.21665,1.629976 -0.10626,1.968617 c -0.44539,8.251151 -6.21842,15.009924 -14.44464,16.911053 l -1.38713,0.320573 -2.45757,-0.01482 -2.45758,-0.01482 -1.66966,-0.442651 C 96.604046,63.867511 91.972515,59.547176 89.900468,53.66832 L 89.35791,52.128962 89.062503,50.075193 88.767096,48.021424 88.970381,46.085006 C 89.71562,38.986121 93.541444,33.641318 99.619572,31.20773 l 1.053248,-0.421703 0.0471,-4.070612 0.0471,-4.070612 h -28.002 -28.002041 c -4.279345,-0.09635 -0.04379,-0.01635 -4.217617,-4.3e-5 h -9.617861 -9.61786 C 18.709156,22.66 16.108845,22.7472 13.508283,22.72382 Z m 96.374537,38.618385 c 0.6243,-0.147146 1.8487,-0.606533 2.72088,-1.02086 l 1.58578,-0.753322 1.38382,-1.116089 c 2.86712,-2.312422 4.53998,-5.329434 5.0405,-9.090597 l 0.20064,-1.507723 -0.11906,-1.325888 c -0.17723,-1.973565 -0.57536,-3.42269 -1.43607,-5.227013 l -0.77236,-1.619091 -1.09549,-1.171942 c -1.24409,-1.330916 -2.45004,-2.270229 -3.77976,-2.944049 l -0.91432,-0.46332 v 2.829708 2.829708 l 0.78199,0.86976 c 3.07317,3.418103 2.86701,8.582551 -0.47605,11.925618 l -1.02571,1.02571 -1.26387,0.620727 c -3.60068,1.768413 -7.61919,1.04802 -10.4047,-1.865232 l -1.065938,-1.114827 -0.48604,-1.032303 C 98.48974,50.623408 98.148483,49.557985 97.998715,48.823569 l -0.272308,-1.335303 0.203594,-1.318757 0.203594,-1.318756 0.591275,-1.248658 c 0.325202,-0.686761 0.957652,-1.631029 1.40544,-2.098371 l 0.81417,-0.849715 -0.0481,-2.775481 -0.0481,-2.775482 -1.141017,0.658126 -1.141018,0.658126 -1.511384,1.50456 -1.511383,1.504559 -0.816273,1.657921 c -0.448951,0.911857 -0.98169,2.28987 -1.183865,3.06225 l -0.367591,1.404329 -0.01748,1.930952 c -0.07228,7.984123 5.770251,14.017502 13.658411,14.104559 l 1.93095,0.02131 z m -1.58018,-9.818694 c 1.58377,-0.558786 2.99041,-2.31291 2.99041,-3.72913 v -0.586036 l -0.51453,0.586026 c -0.65661,0.747838 -2.02293,1.492569 -3.11213,1.696304 l -0.84963,0.158925 -0.96194,-0.177627 c -1.26866,-0.234267 -1.85199,-0.544231 -2.85608,-1.517641 l -0.83382,-0.808343 0.002,0.695566 0.002,0.695565 0.51019,0.889474 c 1.132,1.97358 3.48614,2.851285 5.62424,2.096917 z m -0.53388,-6.688359 0.5401,-0.454457 V 33.512747 22.644803 h -1.4921 -1.4921 v 10.867944 10.867944 l 0.54009,0.454457 c 0.29705,0.249952 0.72545,0.454458 0.95201,0.454458 0.22655,0 0.65495,-0.204506 0.952,-0.454458 z m 53.22313,-27.412693 c 0.0114,-0.555149 0.0311,-2.049775 0.0439,-3.32139 l 0.0232,-2.31203 -0.50469,-0.101661 C 159.8566,11.546837 18.806613,11.558509 17.141742,11.699242 l -1.343043,0.113529 v 3.309522 3.309523 h 72.586243 72.586248 z m -11.60642,122.834885 -0.35108,-0.35108 v -0.59494 c 0,-0.32723 0.13824,-0.75657 0.3072,-0.95411 l 0.30719,-0.35916 2.56001,-0.80131 c 2.96433,-0.92786 2.97676,-0.92924 3.5917,-0.4003 l 0.46619,0.40101 v 0.6737 0.67369 l -0.32475,0.31756 c -0.39362,0.3849 -4.76232,1.74603 -5.60408,1.74603 h -0.6013 z m -0.6468,-3.159 c -0.45956,-0.18751 -0.75753,-0.69547 -0.75753,-1.2914 0,-1.07502 0.18824,-1.18941 3.63591,-2.20956 l 2.49489,-0.73822 0.48771,0.23376 c 0.26824,0.12856 0.59258,0.45256 0.72076,0.71999 l 0.23304,0.48623 -0.31921,0.64871 -0.31922,0.6487 -2.4236,0.73876 c -2.94246,0.89691 -3.26428,0.96234 -3.75275,0.76303 z m -0.71014,-3.4716 c -0.92011,-0.14915 -1.40798,-1.56357 -0.79344,-2.30028 l 0.3072,-0.36827 1.57987,-0.45878 c 0.86893,-0.25233 2.1154,-0.60974 2.76994,-0.79425 l 1.19007,-0.33546 0.43778,0.10988 c 0.56738,0.1424 0.95621,0.70957 0.95621,1.39478 v 0.54473 l -0.39496,0.36311 -0.39497,0.3631 -2.45758,0.72842 c -3.02811,0.89753 -2.73464,0.82848 -3.20012,0.75302 z m 0.18248,-3.96112 -0.28987,-0.55514 -0.0139,-1.14101 -0.0139,-1.14102 -0.37459,-0.30391 c -0.42937,-0.34836 -0.84646,-1.30584 -1.01805,-2.33708 l -0.11815,-0.71004 0.19206,-0.50515 c 0.10563,-0.27783 0.59673,-1.00392 1.09133,-1.61352 l 0.89927,-1.10838 0.24741,0.20533 c 0.3798,0.31521 0.90229,1.43615 1.0239,2.19667 l 0.1093,0.68352 -0.2557,0.60526 c -0.14063,0.3329 -0.58269,0.99878 -0.98235,1.47975 -0.39966,0.48097 -0.72382,0.95493 -0.72034,1.05325 0.008,0.22514 0.74891,-0.63861 1.39806,-1.62974 l 0.49466,-0.75526 0.43057,0.57971 c 0.5524,0.74375 0.83013,1.58295 0.83013,2.50829 v 0.73516 l -0.68751,0.96011 -0.68752,0.9601 -0.63248,0.19412 -0.63249,0.19411 z m 2.44517,-0.73708 0.56131,-0.79633 0.30862,0.40137 c 0.42323,0.55041 -0.23404,1.11207 -1.39097,1.18863 -0.0222,0.001 0.21232,-0.35568 0.52104,-0.79367 z m -4.89315,-7.1469 -0.46862,-0.92159 -0.0171,-0.746 c -0.009,-0.41031 -0.0693,-0.74603 -0.13303,-0.74605 -0.0638,-3e-5 -0.3205,-0.41052 -0.57051,-0.91222 l -0.45455,-0.91217 v -1.03292 -1.03292 l 0.60906,-0.90745 c 0.33498,-0.4991 0.80075,-1.14355 1.03504,-1.43212 l 0.42599,-0.52466 0.36789,0.43689 c 0.20234,0.24029 0.4942,0.85707 0.64858,1.37062 l 0.28069,0.93373 -0.11727,0.46725 c -0.0645,0.25699 -0.45481,0.94273 -0.86735,1.52385 -0.68368,0.96307 -1.34061,2.06093 -1.10491,1.84653 0.26132,-0.2377 1.88202,-2.55827 1.88202,-2.69474 0,-0.32511 0.59474,0.35236 0.90167,1.0271 l 0.31941,0.70217 0.002,0.8777 0.002,0.87771 -0.96325,1.19666 c -0.52979,0.65817 -0.96325,1.27037 -0.96325,1.36045 0,0.436 -0.39269,0.0703 -0.81379,-0.75782 z m -2.04306,-6.76805 c -0.53108,-0.60634 -0.87811,-1.54015 -0.96234,-2.58957 l -0.0866,-1.07918 0.68023,-1.01713 c 0.37413,-0.55942 0.82718,-1.24496 1.00677,-1.52343 l 0.32654,-0.50631 0.27191,0.22487 c 0.14955,0.12368 0.45605,0.61984 0.68111,1.10258 l 0.4092,0.87771 0.002,0.89709 0.002,0.8971 -0.47182,0.68277 c -0.2595,0.37553 -0.72518,1.05362 -1.03484,1.50688 l -0.56301,0.8241 z m -1.5562,-4.47944 c -0.45356,-0.62527 -0.85352,-1.98564 -0.8496,-2.8897 l 0.004,-0.82769 0.96188,-1.31301 c 0.52904,-0.72216 0.96188,-1.38353 0.96188,-1.46971 0,-0.35529 0.61048,0.38518 0.9917,1.20285 l 0.4092,0.87771 -0.004,0.96548 -0.004,0.96547 -0.62153,0.87771 c -0.34185,0.48274 -0.78132,1.13443 -0.97661,1.44821 -0.41847,0.67236 -0.49188,0.68607 -0.87154,0.16268 z m -1.27046,-4.30793 c -0.47938,-0.52971 -0.98706,-2.05603 -0.98706,-2.96757 v -0.83347 l 1.03635,-1.52307 1.03634,-1.523073 0.27056,0.298969 c 0.14881,0.164432 0.43116,0.653014 0.62744,1.085744 l 0.35688,0.78678 0.004,1.0696 0.004,1.0696 -0.90172,1.30021 c -1.17038,1.6876 -1.09577,1.62383 -1.4465,1.23628 z m -1.44969,-4.54619 c -0.56865,-0.781 -0.9417,-1.91817 -0.9417,-2.870666 v -0.890879 l 0.99511,-1.480127 c 1.12107,-1.667501 1.19654,-1.688562 1.80611,-0.504054 l 0.43838,0.851863 0.0637,1.153394 0.0637,1.153394 -0.99335,1.489475 c -0.54634,0.81922 -1.0133,1.50944 -1.03769,1.53383 -0.0244,0.0244 -0.20181,-0.17191 -0.39427,-0.43623 z m -1.35897,-4.406411 C 137.60487,96.743463 137.0976,95.2173 137.0976,94.303988 v -0.835527 l 1.00936,-1.61694 1.00936,-1.616941 0.23317,0.303972 c 0.12824,0.167184 0.3968,0.619945 0.59681,1.006135 l 0.36364,0.702165 0.0792,1.141017 0.0792,1.141017 -0.91378,1.404329 c -1.15885,1.780985 -1.11086,1.737218 -1.46997,1.340404 z m -1.50542,-4.576316 c -0.56256,-0.790039 -0.88596,-1.883441 -0.88596,-2.995345 v -1.008653 l 0.89845,-1.382967 c 0.49414,-0.760631 0.93533,-1.422463 0.98041,-1.470737 0.80178,-0.858618 1.76112,3.374889 1.05651,4.662272 -1.56879,2.866276 -1.57046,2.868058 -2.04941,2.19543 z m -1.65317,-4.970635 c -1.20736,-2.090288 -1.10602,-3.107128 0.57457,-5.765087 l 0.68539,-1.083996 0.54001,0.945023 c 1.1576,2.02585 1.11383,3.04849 -0.22251,5.198457 -1.04774,1.685645 -1.01885,1.67272 -1.57746,0.705603 z m -1.33103,-4.333044 c -0.55307,-0.776724 -0.909,-1.917458 -0.93949,-3.011073 l -0.0273,-0.980752 0.96202,-1.611699 0.96203,-1.611699 0.46298,0.543434 c 0.25464,0.298889 0.59979,0.978354 0.76698,1.509921 l 0.304,0.966487 -0.0794,0.826553 -0.0794,0.826552 -0.93413,1.528651 c -1.08232,1.771142 -0.9349,1.664276 -1.39821,1.013625 z m -1.28181,-4.528152 c -0.52898,-0.58451 -1.05286,-2.025516 -1.13019,-3.10874 l -0.076,-1.063991 0.61939,-0.965476 c 0.34066,-0.531012 0.79015,-1.278244 0.99886,-1.660515 l 0.37946,-0.695039 0.41468,0.519498 c 0.58952,0.738525 0.94501,1.90817 0.94501,3.109261 v 1.035123 l -0.80788,1.248849 c -0.44433,0.686867 -0.86246,1.396411 -0.92918,1.576766 l -0.1213,0.327917 z m -1.78551,-5.088062 c -0.24158,-0.365496 -0.57336,-1.177997 -0.73731,-1.805556 l -0.29809,-1.141017 0.12112,-0.64168 c 0.0666,-0.352924 0.54273,-1.289822 1.05803,-2.081996 l 0.93692,-1.440316 0.44453,0.589896 c 1.38546,1.83854 1.31138,3.614622 -0.24557,5.887758 -0.27643,0.403586 -0.5026,0.81364 -0.5026,0.911231 0,0.45871 -0.37982,0.322665 -0.77703,-0.27832 z m -1.86959,-5.404979 -0.56213,-1.141847 -0.0194,-1.008531 -0.0194,-1.008532 0.9084,-1.364762 c 0.49962,-0.750619 0.94847,-1.461561 0.99743,-1.57987 l 0.089,-0.215108 0.44768,0.488913 c 0.24622,0.268902 0.57651,0.932091 0.73397,1.473752 l 0.2863,0.984839 -0.0777,0.808704 -0.0777,0.808705 -0.93101,1.447792 c -1.11853,1.739396 -1.07363,1.731659 -1.7755,0.305945 z m -1.16386,-3.993929 c -0.21308,-0.31312 -0.51686,-1.074652 -0.67505,-1.692292 l -0.28762,-1.122983 0.10792,-0.539638 c 0.0816,-0.408013 1.37513,-2.641439 1.99587,-3.446106 0.34644,-0.449084 1.44057,2.149494 1.44057,3.421367 v 0.724529 l -1.00936,1.606034 c -1.16307,1.850607 -1.06941,1.788113 -1.57233,1.049089 z m -1.43259,-4.569283 c -1.26054,-2.039597 -1.20072,-3.427988 0.22837,-5.300195 0.31874,-0.417572 0.63102,-0.964407 0.69396,-1.215187 0.16787,-0.66882 0.31769,-0.570192 0.85168,0.560666 1.04529,2.213626 1.00047,3.035767 -0.26993,4.951768 -1.15391,1.740297 -1.07918,1.690465 -1.50408,1.002948 z m -1.32585,-4.25392 c -0.17088,-0.260802 -0.27319,-0.643192 -0.22734,-0.849756 0.0458,-0.206564 0.29192,-1.179538 0.54684,-2.162165 0.25493,-0.982627 0.52736,-2.365013 0.60542,-3.071969 l 0.14191,-1.285375 0.56837,1.174313 0.56837,1.174313 0.0972,0.941843 0.0972,0.941843 -0.39216,0.780272 c -0.21569,0.42915 -0.56857,1.017253 -0.78418,1.306896 -0.2156,0.289643 -0.50877,0.751026 -0.65148,1.025297 l -0.25947,0.498673 z"
         id="path1"
         sodipodi:nodetypes="cscccccssssscssscssscsscccsscssssccssccccccccccccccscccccccccccccccsscccsscccsscccssscsscsscsscsscccccccsscsssscssssccccccscccsscsscsscccssscsscssssssssccccccscccsscscscscscccccsscccccsscsscccsscccsscccccssscsscsscssccccccccccccsscssscccssscssscccssscccsscscccccccsccsssscccsscccsscccccsscsscsscssscsscssscsscssccccccccsscccssscsscssscscccccsscccccsccsccccsscccsscccsscccccsscsscccsscccsscccccccccsccsscsscsscccsscsscsscccsscccccccsscsscscscsscsscccsccssccccccssssccsscccccscssscsscccssccssscsscccsssccsscsscccsscsccsscsscsscsssscssccccccscscscccsscccsscsscssssscccsscccccsscsscccsscccccssscccsscccscccsscccsccsccsscccsssscscccsscccsccsscsssssccssscccccsscccscccscsscsscssccsccsscsssscsccsscsscccsccsscssscssssssssscsscccccssscsc" /><path
         d="m 62.686074,125.20218 c 0.0096,-0.077 0.309415,-0.33831 0.666279,-0.58042 0.356863,-0.2421 1.12405,-0.89789 1.704857,-1.4573 l 1.056015,-1.01709 0.408888,0.52031 c 0.224889,0.28618 0.524256,0.62544 0.66526,0.75391 l 0.256373,0.23357 -0.483038,0.45426 c -0.555916,0.52281 -1.25702,0.71161 -1.962712,0.52855 -0.27062,-0.0702 -0.498751,-0.0579 -0.506985,0.0277 -0.01902,0.19759 -1.152587,0.70769 -1.533754,0.6902 -0.158738,-0.008 -0.280784,-0.0762 -0.271194,-0.15342 z m 4.648353,-1.93254 c -0.364159,-0.29474 -0.985239,-1.17391 -0.966535,-1.36819 0.02935,-0.30492 1.291094,-1.95227 1.581436,-2.06477 l 0.295417,-0.11447 1.195189,0.87792 c 1.348524,0.99054 1.366127,1.03826 0.684266,1.85488 -0.825773,0.98897 -2.110759,1.36418 -2.789773,0.81464 z m 3.348123,-2.07523 c -0.193521,-0.0814 -0.733375,-0.44252 -1.199676,-0.80275 l -0.847824,-0.65488 0.337442,-0.50523 c 0.942346,-1.41083 1.870862,-1.73861 3.671176,-1.29592 l 1.108619,0.27263 -0.03922,0.40745 c -0.126839,1.31747 -2.07887,2.9785 -3.03051,2.5787 z m 1.193413,-3.6502 -0.539647,-0.0985 0.03291,-0.34186 c 0.122728,-1.27478 1.592657,-2.66752 3.323952,-3.14937 1.525057,-0.42444 1.484073,-0.44093 1.358195,0.54622 l -0.09473,0.74283 -0.501224,0.94472 c -0.275675,0.51961 -0.712909,1.08982 -0.971638,1.26715 l -0.470411,0.32241 -0.798895,-0.0674 c -0.439383,-0.0371 -1.041719,-0.11196 -1.33853,-0.16605 z m 1.472144,-3.61866 c -0.132607,-0.66338 0.67837,-2.76845 1.334622,-3.46433 0.292723,-0.31042 2.769532,-1.73575 2.99797,-1.72529 0.385157,0.0173 -0.374777,2.95392 -0.99688,3.85179 l -0.40808,0.589 -1.089082,0.34224 c -0.598993,0.18821 -1.246403,0.41326 -1.438689,0.50007 l -0.349615,0.15788 z m 1.618153,-5.25146 0.1264,-1.27881 0.339864,-0.73635 c 0.412305,-0.89331 0.628649,-1.10579 2.093804,-2.05636 1.348667,-0.87499 1.356751,-0.8691 1.176455,0.86012 l -0.1397,1.33984 -0.29853,0.58066 c -0.384346,0.74759 -0.943855,1.23303 -2.188481,1.89871 -0.551918,0.29516 -1.055821,0.56692 -1.119782,0.60386 -0.06396,0.0367 -0.05943,-0.50832 0.01006,-1.21166 z m 1.027299,-3.69672 c -0.389403,-1.948 0.616757,-3.99175 2.568886,-5.218007 1.369767,-0.860432 1.258557,-0.87257 1.27923,0.13959 l 0.01716,0.840067 -0.27259,0.95447 -0.27259,0.95449 -0.472164,0.58618 c -0.259692,0.32245 -0.891818,0.83756 -1.404727,1.14475 -0.512909,0.3072 -0.979243,0.63757 -1.036301,0.73415 -0.155569,0.26336 -0.339397,0.20206 -0.406906,-0.13567 z m 0.966575,-5.338187 c -0.0077,-0.95367 0.332075,-2.414567 0.720829,-3.098498 0.284821,-0.501096 0.565597,-0.737029 2.122649,-1.783728 l 0.846463,-0.569012 0.09722,0.249966 c 0.05348,0.137473 0.04927,0.758551 -0.0093,1.380172 l -0.106523,1.130205 -0.408428,0.82006 -0.408425,0.820055 -0.74055,0.529998 c -2.237707,1.601479 -2.10529,1.568859 -2.11385,0.520792 z m 0.9772,-4.537474 c -0.151523,-1.540691 0.547678,-3.53332 1.495386,-4.261645 2.546939,-1.957373 2.469204,-1.957031 2.27858,-0.0099 l -0.141694,1.447125 -0.38831,0.766237 -0.38831,0.766238 -1.317472,0.894415 c -1.536038,1.042799 -1.476258,1.027359 -1.538197,0.397551 z M 78.88662,89.91415 c -0.03822,-1.871215 0.690367,-3.488652 1.928489,-4.281168 0.402074,-0.257358 0.971401,-0.665855 1.265172,-0.90775 l 0.534131,-0.439814 0.112444,0.265262 c 0.06186,0.145888 0.02658,0.895774 -0.07836,1.666419 l -0.190812,1.401169 -0.309635,0.604862 -0.309634,0.60487 -0.895359,0.627255 c -0.492447,0.344982 -1.088537,0.779266 -1.324647,0.965078 -0.618899,0.48703 -0.712821,0.422065 -0.731783,-0.506182 z m 1.021964,-4.308079 c -0.115758,-0.579093 0.16342,-2.429398 0.490658,-3.251928 l 0.330526,-0.830798 1.464056,-1.100215 1.464056,-1.100214 0.104937,0.514225 0.104938,0.514225 -0.19472,1.10952 c -0.10709,0.610231 -0.342048,1.403112 -0.522119,1.761948 l -0.327402,0.652429 -1.332566,1.007734 c -1.501358,1.135388 -1.500065,1.134792 -1.582366,0.723074 z m 1.003004,-5.329326 -0.09023,-0.802665 0.257355,-1.011077 c 0.141547,-0.556091 0.401048,-1.266487 0.576673,-1.578655 l 0.319322,-0.567597 1.324586,-0.917307 1.324585,-0.917319 0.112159,0.170163 c 0.06169,0.09354 0.05944,0.717699 -0.005,1.386919 l -0.117137,1.216761 -0.415471,0.862528 -0.415473,0.862541 -0.958957,0.675196 c -0.527426,0.371372 -1.153192,0.843501 -1.390588,1.049192 l -0.431633,0.373999 z m 0.98102,-4.920901 c -0.04659,-0.940621 0.257738,-2.42713 0.659056,-3.219296 l 0.337197,-0.66559 1.366904,-0.947119 c 1.594688,-1.104944 1.590123,-1.107422 1.404568,0.761409 l -0.14237,1.434245 -0.31724,0.604682 c -0.308251,0.587542 -0.561481,0.815974 -2.328836,2.100704 -1.022436,0.743234 -0.938723,0.74914 -0.979246,-0.06903 z m 1.044794,-4.453885 c -0.03389,-0.16957 -0.01022,-0.827744 0.05272,-1.462612 l 0.114412,-1.154317 0.37071,-0.811017 c 0.421668,-0.922504 0.497022,-0.997952 2.083922,-2.086524 1.358207,-0.93169 1.298608,-0.960348 1.159316,0.557653 -0.210867,2.297997 -0.700747,3.187729 -2.312208,4.199461 -0.484842,0.3044 -0.999799,0.668696 -1.144352,0.809553 l -0.262824,0.256109 z m 0.93168,-5.399926 c -0.04316,-0.87138 0.269732,-2.436133 0.645791,-3.229595 l 0.292288,-0.616718 1.418859,-1.047747 c 1.616655,-1.193808 1.568748,-1.201264 1.511544,0.235036 -0.09654,2.42405 -1.215181,4.01039 -3.72805,5.286735 -0.05866,0.02975 -0.121859,-0.252671 -0.140432,-0.627711 z m 1.017544,-4.629866 c -0.03659,-0.2222 -0.01354,-0.889813 0.05119,-1.483599 l 0.117679,-1.079608 0.427177,-0.869285 0.427175,-0.869292 1.326638,-0.91285 c 1.577831,-1.085696 1.575768,-1.086614 1.40676,0.626347 l -0.132845,1.345735 -0.347323,0.759302 c -0.366857,0.802016 -0.476978,0.9106 -2.15237,2.122306 l -1.057651,0.764929 z m 0.957789,-5.246923 c -0.04265,-0.861102 0.198845,-2.064342 0.617199,-3.075189 l 0.322786,-0.779934 0.948417,-0.688447 c 1.070972,-0.777411 1.014004,-0.810791 1.386382,0.812316 l 0.276398,1.204735 -0.230916,0.480668 c -0.272405,0.567024 -2.116093,2.118609 -3.179485,2.675744 -0.05873,0.03079 -0.122099,-0.252673 -0.140781,-0.629893 z m 1.060431,-4.664275 c -0.178198,-0.891456 0.304802,-2.916562 1.105166,-4.633667 l 0.428947,-0.920269 0.0323,1.03542 c 0.01777,0.569483 0.08657,1.628478 0.152917,2.353321 l 0.120616,1.317898 -0.850342,0.57552 c -0.994007,0.672755 -0.913849,0.65074 -0.989604,0.271777 z"
         style="display:inline;fill:#000000;stroke-width:0.943086"
         id="path1-2" /><path
         d="m 52.668689,148.29244 0.74674,-0.51883 0.74674,-0.51883 1.57918,-0.0755 1.57918,-0.0755 v -1.27555 -1.27555 l -0.65828,-0.12229 c -2.36975,-0.44021 -5.11034,-2.92669 -6.0672,-5.50463 l -0.3693,-0.99494 -2.3e-4,-1.93096 -2.3e-4,-1.93095 0.49879,-1.19607 0.49879,-1.19608 0.89845,-0.98518 c 0.49415,-0.54185 1.55593,-1.40995 2.35952,-1.92911 l 1.46107,-0.94392 0.25046,-0.59943 c 0.13775,-0.32969 0.25045,-1.13619 0.25045,-1.79223 v -1.1928 l -0.39496,-0.17328 -0.39497,-0.17328 -0.0531,-0.92159 6.46019,-0.0538 v 0.86775 l -0.34755,0.24343 -0.34754,0.24343 -0.082,1.84171 -0.082,1.8417 -0.38616,1.03209 -0.38615,1.03209 -1.08094,1.06183 c -0.59451,0.58401 -1.45399,1.36545 -1.90995,1.73655 -0.91901,0.74796 -1.4533,1.64534 -1.62723,2.73308 l -0.115,0.71913 0.21975,0.78486 c 0.21362,0.76298 1.38332,2.33806 1.39796,1.88245 0.004,-0.12507 0.2012,-0.4213 0.43818,-0.65828 l 0.43087,-0.43087 h 0.51093 c 0.67615,0 1.38029,0.5756 1.52825,1.24927 l 0.11923,0.54283 0.54966,-0.10993 c 1.47053,-0.29411 2.60366,-1.68729 2.90594,-3.57286 l 0.17647,-1.10075 0.49784,-0.74243 c 0.27382,-0.40834 0.94535,-1.05053 1.49229,-1.4271 l 0.99445,-0.68466 1.0833,-0.0175 1.08331,-0.0175 0.18907,0.29391 0.18906,0.29391 -0.75015,0.81382 c -0.41259,0.4476 -0.87676,1.10528 -1.03149,1.4615 l -0.28133,0.64768 -0.10376,1.84665 -0.10376,1.84665 -0.51187,1.04978 -0.51188,1.04978 -0.97671,0.96709 c -1.04117,1.03091 -2.39791,1.78397 -3.90927,2.16983 l -0.92935,0.23728 -0.0512,1.23602 -0.0512,1.23601 1.64448,0.0611 1.64448,0.0611 0.7292,0.48293 0.7292,0.48293 z"
         style="display:inline;fill:#000000"
         id="path1-3"
         sodipodi:nodetypes="cccccccsscccccsscssccccccccccccssscssscsscsscsscccccsscccccsscccccccc" /><ellipse
         style="fill:none;fill-rule:evenodd;stroke:#000000;stroke-width:21.421;stroke-dasharray:none"
         id="path3"
         cx="58.999298"
         cy="108.58923"
         rx="6.8614621"
         ry="6.8233771" /><path
         d="m 41.465489,108.91303 0.352293,-1.14102 -0.277055,-0.30391 c -0.317569,-0.34836 -0.427371,-1.30584 -0.268,-2.33708 l 0.109727,-0.71004 0.35418,-0.50515 c 0.194795,-0.27783 0.918923,-1.00392 1.609165,-1.61352 l 1.254988,-1.10838 0.181512,0.20533 c 0.278638,0.31521 0.441379,1.43615 0.318912,2.19667 l -0.110065,0.68352 -0.449949,0.60526 c -0.24747,0.3329 -0.903234,0.99878 -1.457254,1.47975 -0.55402,0.48097 -1.03029,0.95493 -1.058364,1.05325 -0.06425,0.22514 0.953862,-0.63861 1.9211,-1.62974 l 0.737049,-0.75526 0.244521,0.57971 c 0.313705,0.74375 0.322106,1.58295 0.02513,2.50829 l -0.235939,0.73516 m -3.410274,-6.13067 -0.17285,-0.92159 0.222317,-0.746 c 0.122683,-0.41031 0.170127,-0.74603 0.106404,-0.74605 -0.06379,-3e-5 -0.18875,-0.41052 -0.277747,-0.91222 l -0.161803,-0.91217 0.3315,-1.03292 0.3315,-1.03292 0.900292,-0.90745 c 0.495159,-0.4991 1.167755,-1.14355 1.494657,-1.43212 l 0.594372,-0.52466 0.227677,0.43689 c 0.125222,0.24029 0.219136,0.85707 0.2087,1.37062 l -0.01898,0.93373 -0.267227,0.46725 c -0.146977,0.25699 -0.757365,0.94273 -1.356406,1.52385 -0.992763,0.96307 -2.002035,2.06093 -1.697526,1.84653 0.337606,-0.2377 2.703058,-2.55827 2.746856,-2.69474 0.104339,-0.32511 0.481655,0.35236 0.572038,1.0271 l 0.09406,0.70217 -0.279685,0.8777 -0.279687,0.87771 -1.3473,1.19666 c -0.74102,0.65817 -1.370956,1.27037 -1.399866,1.36045 -0.139928,0.436 -0.415252,0.0703 -0.570579,-0.75782 z m 0.129043,-6.76805 C 41.099724,95.35081 41.052386,94.417 41.304952,93.36758 l 0.259746,-1.07918 1.006662,-1.01713 c 0.553668,-0.55942 1.226731,-1.24496 1.495692,-1.52343 l 0.489033,-0.50631 0.199741,0.22487 c 0.109857,0.12368 0.257122,0.61984 0.327254,1.10258 l 0.127512,0.87771 -0.285907,0.89709 -0.285911,0.8971 -0.690945,0.68277 c -0.38002,0.37553 -1.063323,1.05362 -1.51845,1.50688 l -0.827492,0.8241 z m -0.118592,-4.47944 c -0.252889,-0.62527 -0.216259,-1.98564 0.0778,-2.8897 l 0.269635,-0.82769 1.38327,-1.31301 c 0.760806,-0.72216 1.405903,-1.38353 1.433561,-1.46971 0.114025,-0.35529 0.486863,0.38518 0.605664,1.20285 l 0.127512,0.87771 -0.313856,0.96548 -0.313853,0.96547 -0.903218,0.87771 c -0.496778,0.48274 -1.145398,1.13443 -1.441391,1.44821 -0.634253,0.67236 -0.712063,0.68607 -0.923749,0.16268 z m 0.112104,-4.30793 c -0.309377,-0.52971 -0.327208,-2.05603 -0.03466,-2.96757 l 0.26749,-0.833473 1.525156,-1.52307 1.525148,-1.523073 0.17461,0.298969 c 0.09604,0.164432 0.221585,0.653014 0.278987,1.085744 l 0.104375,0.78678 -0.339272,1.0696 -0.339273,1.069603 -1.319002,1.30021 c -1.71199,1.6876 -1.616914,1.62383 -1.843266,1.23628 z m 0.0093,-4.546193 c -0.318,-0.781 -0.326093,-1.91817 -0.0204,-2.870666 l 0.285915,-0.890879 1.470134,-1.480127 c 1.656229,-1.667501 1.738458,-1.688562 1.967878,-0.504054 l 0.164988,0.851863 -0.306464,1.153394 -0.306465,1.153394 -1.471374,1.489475 c -0.809256,0.81922 -1.497732,1.50944 -1.52995,1.53383 -0.03223,0.0244 -0.146638,-0.17191 -0.254268,-0.43623 z m 0.0552,-4.406411 c -0.309634,-0.530156 -0.327105,-2.056319 -0.03399,-2.969631 l 0.26815,-0.835527 1.528292,-1.61694 1.528293,-1.616941 0.135615,0.303972 c 0.07458,0.167184 0.197838,0.619945 0.273906,1.006135 l 0.138291,0.702165 -0.286992,1.141017 -0.286992,1.141017 -1.364478,1.404329 c -1.73043,1.780985 -1.668394,1.737218 -1.900153,1.340404 z m -0.03672,-4.576316 c -0.309009,-0.790039 -0.281498,-1.883441 0.07535,-2.995345 l 0.323712,-1.008653 1.342292,-1.382967 c 0.738253,-0.760631 1.391848,-1.422463 1.452421,-1.470737 1.07734,-0.858618 0.678,3.374889 -0.439776,4.662272 -2.488677,2.866276 -2.490919,2.868058 -2.753999,2.19543 z m -0.05792,-4.970635 c -0.536514,-2.090288 -0.108834,-3.107128 2.424787,-5.765087 l 1.033282,-1.083996 0.236719,0.945023 c 0.507435,2.02585 0.135464,3.04849 -1.890875,5.198457 -1.588722,1.685645 -1.555684,1.67272 -1.803913,0.705603 z m 0.0596,-4.333044 c -0.303792,-0.776724 -0.293621,-1.917458 0.02687,-3.011073 l 0.287457,-0.980752 1.479271,-1.611699 1.47928,-1.611699 0.288573,0.543434 c 0.158716,0.298889 0.285802,0.978354 0.282394,1.509921 l -0.0062,0.966487 -0.34467,0.826553 -0.344669,0.826552 -1.424728,1.528651 c -1.650741,1.771142 -1.469024,1.664276 -1.723517,1.013625 z m 0.171431,-4.528152 c -0.34139,-0.58451 -0.402801,-2.025516 -0.132487,-3.10874 l 0.265472,-1.063991 0.929245,-0.965476 c 0.51108,-0.531012 1.200383,-1.278244 1.531777,-1.660515 l 0.602522,-0.695039 0.247955,0.519498 c 0.352502,0.738525 0.332612,1.90817 -0.05286,3.109261 l -0.332207,1.035123 -1.208679,1.248849 c -0.66477,0.686867 -1.310617,1.396411 -1.435219,1.576766 l -0.22654,0.327917 z M 41.478077,54.720967 C 41.353798,54.355471 41.282778,53.54297 41.320233,52.915411 l 0.0681,-1.141017 0.327058,-0.64168 c 0.179865,-0.352924 0.956678,-1.289822 1.726215,-2.081996 l 1.399167,-1.440316 0.255212,0.589896 c 0.795409,1.83854 0.151322,3.614622 -2.135156,5.887758 -0.405955,0.403586 -0.763726,0.81364 -0.795046,0.911231 -0.147216,0.45871 -0.483375,0.322665 -0.687708,-0.27832 z m -0.134944,-5.404979 -0.195671,-1.141847 0.304272,-1.008531 0.304273,-1.008532 1.3464,-1.364762 c 0.74052,-0.750619 2.230641,-0.373974 2.214263,0.167687 l -0.02977,0.984839 -0.337241,0.808704 -0.337241,0.808705 -1.395657,1.447792 c -1.676763,1.739396 -1.62938,1.731659 -1.873689,0.305945 z m 0.117931,-3.993929 c -0.112589,-0.31312 -0.171967,-1.074652 -0.131935,-1.692292 l 2.040954,0.643203 c -1.756994,1.850607 -1.643277,1.788113 -1.909019,1.049089 z"
         style="display:inline;fill:#000000"
         id="path1-5" /><path
         d="m 41.573106,47.069394 0.352293,-1.14102 -0.277055,-0.30391 c -0.317569,-0.34836 -0.427371,-1.30584 -0.268,-2.33708 l 0.109727,-0.71004 0.35418,-0.50515 c 0.194795,-0.27783 0.918923,-1.00392 1.609165,-1.61352 l 1.254988,-1.10838 0.181512,0.20533 c 0.278638,0.31521 0.441379,1.43615 0.318912,2.19667 l -0.110065,0.68352 -0.449949,0.60526 c -0.24747,0.3329 -0.903234,0.99878 -1.457254,1.47975 -0.55402,0.48097 -1.03029,0.95493 -1.058364,1.05325 -0.06425,0.22514 0.953862,-0.63861 1.9211,-1.62974 l 0.737049,-0.75526 0.244521,0.57971 c 0.313705,0.74375 0.322106,1.58295 0.02513,2.50829 l -0.235939,0.73516 m -3.410274,-6.13067 -0.17285,-0.92159 0.222317,-0.746 c 0.122683,-0.41031 0.170127,-0.74603 0.106404,-0.74605 -0.06379,-3e-5 -0.18875,-0.41052 -0.277747,-0.91222 l -0.161803,-0.91217 0.3315,-1.03292 0.3315,-1.03292 0.900292,-0.90745 c 0.495159,-0.4991 1.167755,-1.14355 1.494657,-1.43212 l 0.594372,-0.52466 0.227677,0.43689 c 0.125222,0.24029 0.219136,0.85707 0.2087,1.37062 l -0.01898,0.93373 -0.267227,0.46725 c -0.146977,0.25699 -0.757365,0.94273 -1.356406,1.52385 -0.992763,0.96307 -2.002035,2.06093 -1.697526,1.84653 0.337606,-0.2377 2.703058,-2.55827 2.746856,-2.69474 0.104339,-0.32511 0.481655,0.35236 0.572038,1.0271 l 0.09406,0.70217 -0.279685,0.8777 -0.279687,0.87771 -1.3473,1.19666 c -0.74102,0.65817 -1.370956,1.27037 -1.399866,1.36045 -0.139928,0.436 -0.415252,0.0703 -0.570579,-0.75782 z m 0.129043,-6.76805 c -0.336485,-0.60634 -0.383823,-1.54015 -0.131257,-2.58957 l 0.259746,-1.07918 1.006662,-1.01713 c 0.553668,-0.55942 1.226731,-1.24496 1.495692,-1.52343 l 0.489033,-0.50631 0.199741,0.22487 c 0.109857,0.12368 0.257122,0.61984 0.327254,1.10258 l 0.127512,0.87771 -0.285907,0.89709 -0.285911,0.8971 -0.690945,0.68277 c -0.38002,0.37553 -1.063323,1.05362 -1.51845,1.50688 l -0.827492,0.8241 z m -0.118592,-4.47944 c -0.252889,-0.62527 -0.216259,-1.98564 0.0778,-2.8897 l 0.269635,-0.82769 1.38327,-1.31301 c 0.760806,-0.72216 1.405903,-1.38353 1.433561,-1.46971 0.114025,-0.35529 0.486863,0.38518 0.605664,1.20285 l 0.127512,0.87771 -0.313856,0.96548 -0.313853,0.96547 -0.903218,0.87771 c -0.496778,0.48274 -1.145398,1.13443 -1.441391,1.44821 -0.634253,0.67236 -0.712063,0.68607 -0.923749,0.16268 z m 0.112104,-4.30793 c -0.309377,-0.52971 -0.327208,-2.05603 -0.03466,-2.96757 l 0.26749,-0.833473 c 0.766346,-0.805254 2.208467,-2.524433 3.503901,-1.66143 l 0.104375,0.78678 -0.339272,1.0696 -0.339273,1.069603 -1.319002,1.30021 c -1.71199,1.6876 -1.616914,1.62383 -1.843266,1.23628 z M 41.8009,21.216181 c -0.03223,0.0244 0.03222,-0.02439 0,0 z"
         style="display:inline;fill:#000000"
         id="path1-5-0"
         sodipodi:nodetypes="ccsscsscsscsscscssccccsscccsccsscssssscccsscccccsscsscccsscccccsscccccscccscscccsccss" /><path
         style="fill:none;fill-rule:evenodd;stroke:#000000;stroke-width:21.421;stroke-opacity:0"
         d="M 184.97682,7.3727272 V 253.17064 Z"
         id="path4" /><path
         style="fill:none;fill-rule:evenodd;stroke:#000000;stroke-width:21.421;stroke-opacity:0"
         d="M 11.410155,34.662259 H 221.58029 Z"
         id="path5" /><g
         id="g6"><path
           d="m 45.310402,103.53175 0.318895,-0.43885 c 0.175394,-0.24137 0.508765,-0.53644 0.740826,-0.6557 l 0.421931,-0.21684 2.150382,-0.003 2.15038,-0.003 v -1.71822 -1.718225 l 0.39496,-0.780897 0.39497,-0.780889 0.74674,-0.51883 0.74674,-0.51883 1.57918,-0.0755 1.57918,-0.0755 2.960218,-0.0024 -0.02008,47.829651 -32.180852,-0.0425 c -1.575885,0.007 -1.193686,-1.79412 -1.193686,-1.79412 19.550746,-38.99907 0.19559,-0.1317 19.210217,-38.48621 z m 8.570878,-3.03285 c -0.02558,0.51154 -0.02481,0.64834 0.02399,1.70605 l 5.585928,-0.0346 0.004,-2.774264 c 0,0 -5.508353,-1.008775 -5.613929,1.102744 z m 19.790825,3.04715 -0.318452,-0.43917 c -0.175151,-0.24155 -0.508224,-0.53695 -0.740165,-0.65645 l -0.421712,-0.21726 -2.150378,-0.005 -2.150376,-0.005 0.0017,-1.71822 0.0017,-1.718223 -0.394172,-0.781295 -0.394182,-0.781287 -0.746217,-0.519582 -0.746216,-0.519583 -1.579103,-0.07709 -1.579103,-0.07709 -2.960214,-0.0054 -0.02816,47.829651 32.180879,-0.01 c 1.575877,0.009 1.195494,-1.79291 1.195494,-1.79291 -19.511405,-39.01877 -0.195457,-0.1319 -19.171393,-38.50557 z m -8.567815,-3.04149 c 0.02506,0.51156 0.02416,0.64836 -0.02571,1.70602 l -5.58589,-0.0402 -0.0012,-2.774266 c 0,0 5.509367,-1.003219 5.612814,1.108406 z"
           style="display:inline;fill:#000000"
           id="path1-75"
           sodipodi:nodetypes="sssccccccccccccccccscccssccsscccccccccccccccccscccss"
           transform="translate(-0.76869069,51.511634)" /><path
           d="m 59.91377,187.40366 h -2.54 v -3.9116 c -0.745067,-0.0677 -1.4732,-0.2032 -2.1844,-0.4064 -0.7112,-0.23707 -1.3716,-0.57573 -1.9812,-1.016 l -2.4892,2.4892 -1.778,-1.5748 2.5908,-2.5908 c -0.440267,-0.6096 -0.778933,-1.28693 -1.016,-2.032 -0.237067,-0.74507 -0.389467,-1.50707 -0.4572,-2.286 h -3.8608 v -2.2352 h 3.8608 c 0.06773,-0.77893 0.220133,-1.54093 0.4572,-2.286 0.237067,-0.74507 0.575733,-1.4224 1.016,-2.032 l -2.5908,-2.5908 1.778,-1.5748 2.4892,2.4892 c 0.6096,-0.44027 1.27,-0.762 1.9812,-0.9652 0.7112,-0.23707 1.439333,-0.38947 2.1844,-0.4572 v -3.9116 h 2.54 v 3.9116 c 0.745067,0.0677 1.4732,0.22013 2.1844,0.4572 0.7112,0.2032 1.3716,0.52493 1.9812,0.9652 l 2.4892,-2.4892 1.778,1.5748 -2.5908,2.5908 c 0.440267,0.6096 0.778933,1.28693 1.016,2.032 0.237067,0.74507 0.389467,1.50707 0.4572,2.286 h 3.8608 v 2.2352 h -3.8608 c -0.06773,0.77893 -0.220133,1.54093 -0.4572,2.286 -0.237067,0.74507 -0.575733,1.4224 -1.016,2.032 l 2.5908,2.5908 -1.778,1.5748 -2.4892,-2.4892 c -0.6096,0.44027 -1.27,0.77893 -1.9812,1.016 -0.7112,0.2032 -1.439333,0.33867 -2.1844,0.4064 z m -1.27,-6.0452 c 0.846667,0 1.6764,-0.13547 2.4892,-0.4064 0.8128,-0.27093 1.507067,-0.7112 2.0828,-1.3208 0.575733,-0.6096 0.9652,-1.3208 1.1684,-2.1336 0.237067,-0.84667 0.3556,-1.69333 0.3556,-2.54 0,-0.84667 -0.118533,-1.6764 -0.3556,-2.4892 -0.2032,-0.84667 -0.592667,-1.5748 -1.1684,-2.1844 -0.575733,-0.6096 -1.27,-1.04987 -2.0828,-1.3208 -0.8128,-0.27093 -1.642533,-0.4064 -2.4892,-0.4064 -0.846667,0 -1.6764,0.13547 -2.4892,0.4064 -0.8128,0.27093 -1.507067,0.7112 -2.0828,1.3208 -0.575733,0.6096 -0.982133,1.33773 -1.2192,2.1844 -0.2032,0.8128 -0.3048,1.64253 -0.3048,2.4892 0,0.84667 0.1016,1.69333 0.3048,2.54 0.237067,0.8128 0.643467,1.524 1.2192,2.1336 0.575733,0.6096 1.27,1.04987 2.0828,1.3208 0.8128,0.27093 1.642533,0.4064 2.4892,0.4064 z m 0,-3.8608 c -0.338667,0 -0.677333,-0.0508 -1.016,-0.1524 -0.338667,-0.1016 -0.626533,-0.27093 -0.8636,-0.508 -0.237067,-0.23707 -0.4064,-0.52493 -0.508,-0.8636 -0.1016,-0.33867 -0.1524,-0.67733 -0.1524,-1.016 0,-0.33867 0.0508,-0.67733 0.1524,-1.016 0.1016,-0.33867 0.270933,-0.62653 0.508,-0.8636 0.237067,-0.23707 0.524933,-0.4064 0.8636,-0.508 0.338667,-0.1016 0.677333,-0.1524 1.016,-0.1524 0.338667,0 0.677333,0.0508 1.016,0.1524 0.338667,0.1016 0.626533,0.27093 0.8636,0.508 0.237067,0.23707 0.4064,0.52493 0.508,0.8636 0.1016,0.33867 0.1524,0.67733 0.1524,1.016 0,0.33867 -0.0508,0.67733 -0.1524,1.016 -0.1016,0.33867 -0.270933,0.62653 -0.508,0.8636 -0.237067,0.23707 -0.524933,0.4064 -0.8636,0.508 -0.338667,0.1016 -0.677333,0.1524 -1.016,0.1524 z"
           id="text5"
           style="font-size:50.8px;font-family:Sans;-inkscape-font-specification:'Sans, Normal';fill:#ffffff;fill-rule:evenodd;stroke:#000000;stroke-width:26.2978;stroke-opacity:0"
           aria-label="⚙"
           sodipodi:nodetypes="ccccccccsccccsccccccccccccccsccccscccccccssscscssssscscssssssssssssssssssss" /></g></g></g></svg>
