<?xml version="1.0" encoding="UTF-8" standalone="no"?>
<!-- Created with Inkscape (http://www.inkscape.org/) -->

<svg
   width="377.57034"
   height="309.45575"
   viewBox="0 0 377.57034 309.45575"
   version="1.1"
   id="svg1"
   xml:space="preserve"
   inkscape:export-filename="fullgoblinchat.svg"
   inkscape:export-xdpi="96"
   inkscape:export-ydpi="96"
   xmlns:inkscape="http://www.inkscape.org/namespaces/inkscape"
   xmlns:sodipodi="http://sodipodi.sourceforge.net/DTD/sodipodi-0.dtd"
   xmlns="http://www.w3.org/2000/svg"
   xmlns:svg="http://www.w3.org/2000/svg"><sodipodi:namedview
     id="namedview1"
     pagecolor="#ffffff"
     bordercolor="#000000"
     borderopacity="0.25"
     inkscape:showpageshadow="2"
     inkscape:pageopacity="0.0"
     inkscape:pagecheckerboard="0"
     inkscape:deskcolor="#d1d1d1"
     inkscape:document-units="px"
     showguides="true"><sodipodi:guide
       position="269.94867,6.8088093"
       orientation="0,-1"
       id="guide2"
       inkscape:locked="false" /><sodipodi:guide
       position="357.75576,256.0115"
       orientation="1,0"
       id="guide3"
       inkscape:locked="false" /><sodipodi:guide
       position="303.14716,203.56935"
       orientation="0,-1"
       id="guide4"
       inkscape:locked="false" /><sodipodi:guide
       position="165.15616,248.12153"
       orientation="0,-1"
       id="guide5"
       inkscape:locked="false" /><inkscape:page
       x="0"
       y="0"
       width="377.57034"
       height="309.45575"
       id="page2"
       margin="0"
       bleed="0" /></sodipodi:namedview><defs
     id="defs1"><inkscape:path-effect
       effect="mirror_symmetry"
       start_point="377.0422,295.67863"
       end_point="376.23612,445.0539"
       center_point="376.63916,370.36626"
       id="path-effect1"
       is_visible="true"
       lpeversion="1.2"
       lpesatellites=""
       mode="free"
       discard_orig_path="false"
       fuse_paths="false"
       oposite_fuse="false"
       split_items="false"
       split_open="false"
       link_styles="false" /></defs><g
     inkscape:label="Layer 1"
     inkscape:groupmode="layer"
     id="layer1"
     style="display:inline"
     transform="translate(-53.999264,-138.66391)"><path
       style="fill:#000000"
       d="M 75.930161,432.5344 C 76.913494,396.18935 102.48521,362.40039 136.44208,349.93815 128.85862,343.1526 122.43645,335.1 118.80917,325.45832 102.29073,324.76997 85.915622,315.99588 80.391399,299.61129 74.238246,284.38638 65.921109,269.9318 53.999262,258.48909 c 10.065708,-4.13036 20.946254,2.31573 30.802301,5.07009 12.188539,5.95027 24.175767,12.47645 34.858627,20.89579 6.15463,-14.03595 17.77027,-25.48597 32.55375,-29.99087 1.64762,-6.6202 3.96725,-14.6165 7.20388,-5.70509 -0.0502,-4.21905 15.72653,-21.65421 13.40856,-13.32294 -3.53387,10.37706 -2.158,16.13426 7.07745,6.67667 9.7558,-5.58824 -8.98551,14.80081 7.27723,12.35973 14.73472,4.18784 26.85935,15.74788 32.99285,29.62066 16.86082,-12.76293 36.50451,-24.52286 57.83474,-26.85862 14.20953,-1.01287 -5.64376,11.50194 -6.86571,17.02812 -10.11671,13.63123 -12.14371,32.95322 -26.36852,43.31208 -7.3925,7.30409 -22.14012,2.29169 -25.76149,12.35743 -5.45106,11.76155 -23.0543,21.80231 -2.36648,25.54292 26.80006,14.92126 45.93112,43.31317 48.32042,74.06491 0.47783,6.77904 0.29372,10.00541 0.35688,11.38424 -63.27417,0.18059 -126.55091,0.26539 -189.825912,0.38664 z"
       id="path1"
       sodipodi:nodetypes="cccccccccccccccccccccc" /><path
       d="m 342.8344,375.77136 c 22.56479,-13.56261 20.18562,-6.24017 7.90325,-16.15098 -18.35833,-13.80031 -19.18842,-64.31934 26.293,-63.94978 -0.15727,25.01102 -0.56481,109.69949 -0.79071,146.34072 l -57.80121,0.0184 c -0.0789,-27.42276 1.0468,-50.99962 24.39567,-66.25836 z m 67.54922,0.36452 c -22.41711,-13.80535 -20.1171,-6.45766 -7.72848,-16.23534 18.50619,-13.60137 19.88146,-64.1085 -25.6013,-64.22981 -0.11267,25.01126 -0.61914,109.69919 -0.7887,146.34073 l 57.79764,0.64221 c 0.37485,-27.42031 -0.49633,-51.00795 -23.67916,-66.51779 z"
       style="fill:#000000;fill-rule:evenodd;stroke:#000000;stroke-width:2.9;stroke-dasharray:none;stroke-opacity:1"
       id="path1-3"
       inkscape:path-effect="#path-effect1"
       inkscape:original-d="m 342.8344,375.77136 c 22.56479,-13.56261 20.18562,-6.24017 7.90325,-16.15098 -18.35833,-13.80031 -19.18842,-64.31934 26.293,-63.94978 -0.15727,25.01102 -0.56481,109.69949 -0.79071,146.34072 l -57.80121,0.0184 c -0.0789,-27.42276 1.0468,-50.99962 24.39567,-66.25836 z"
       sodipodi:nodetypes="cccccc"
       transform="translate(-4,4)" /><path
       d="m 282.93744,237.01402 c -8.03221,-6.52317 -15.06309,-14.32519 -18.64637,-24.22402 -11.32106,-26.3214 2.4458,-60.37311 29.61541,-70.39639 13.54971,-6.12041 28.73132,-2.5803 43.11372,-3.72427 16.87505,0.72505 35.58929,-2.70958 50.45727,7.46838 21.28532,11.69163 31.43024,38.77759 24.27755,61.6276 -6.35193,21.63911 -18.46577,27.2469 -35.87419,36.81638 l 13.04718,31.29973 -14.90427,-10.50061 c 0,0 0,0 -28.79161,-17.05377 -13.46861,0 -41.49578,3.73746 -62.29469,-11.31303 z"
       style="fill:#000000"
       id="path1-5"
       sodipodi:nodetypes="ccccccccccc" /></g></svg>
