<?xml version="1.0" encoding="UTF-8" standalone="no"?>
<!-- Created with Inkscape (http://www.inkscape.org/) -->

<svg
   width="377.57034"
   height="385.68503"
   viewBox="0 0 377.57034 385.68503"
   version="1.1"
   id="svg1"
   xml:space="preserve"
   inkscape:export-filename="textgoblinchat.svg"
   inkscape:export-xdpi="96"
   inkscape:export-ydpi="96"
   inkscape:version="1.4.2 (ebf0e940, 2025-05-08)"
   sodipodi:docname="goblintalk.svg"
   xmlns:inkscape="http://www.inkscape.org/namespaces/inkscape"
   xmlns:sodipodi="http://sodipodi.sourceforge.net/DTD/sodipodi-0.dtd"
   xmlns="http://www.w3.org/2000/svg"
   xmlns:svg="http://www.w3.org/2000/svg"><sodipodi:namedview
     id="namedview1"
     pagecolor="#585858"
     bordercolor="#000000"
     borderopacity="0.25"
     inkscape:showpageshadow="2"
     inkscape:pageopacity="0.0"
     inkscape:pagecheckerboard="0"
     inkscape:deskcolor="#d1d1d1"
     inkscape:document-units="px"
     showguides="true"
     inkscape:zoom="0.29650457"
     inkscape:cx="370.98923"
     inkscape:cy="569.97436"
     inkscape:window-width="2336"
     inkscape:window-height="1437"
     inkscape:window-x="0"
     inkscape:window-y="45"
     inkscape:window-maximized="1"
     inkscape:current-layer="layer1"><sodipodi:guide
       position="269.94867,6.8088178"
       orientation="0,-1"
       id="guide2"
       inkscape:locked="false" /><sodipodi:guide
       position="357.75576,256.01151"
       orientation="1,0"
       id="guide3"
       inkscape:locked="false" /><sodipodi:guide
       position="303.14716,203.56936"
       orientation="0,-1"
       id="guide4"
       inkscape:locked="false" /><sodipodi:guide
       position="165.15616,248.12154"
       orientation="0,-1"
       id="guide5"
       inkscape:locked="false" /><inkscape:page
       x="0"
       y="0"
       width="377.57034"
       height="385.68503"
       id="page2"
       margin="0"
       bleed="0" /></sodipodi:namedview><defs
     id="defs1"><inkscape:path-effect
       effect="mirror_symmetry"
       start_point="377.0422,295.67863"
       end_point="376.23612,445.0539"
       center_point="376.63916,370.36626"
       id="path-effect1"
       is_visible="true"
       lpeversion="1.2"
       lpesatellites=""
       mode="free"
       discard_orig_path="false"
       fuse_paths="false"
       oposite_fuse="false"
       split_items="false"
       split_open="false"
       link_styles="false" /></defs><g
     inkscape:label="Layer 1"
     inkscape:groupmode="layer"
     id="layer1"
     style="display:inline"
     transform="translate(-53.999264,-62.434639)"><path
       style="display:inline;fill:#000000"
       d="M 75.930161,432.5344 C 76.913494,396.18935 102.48521,362.40039 136.44208,349.93815 128.85862,343.1526 122.43645,335.1 118.80917,325.45832 102.29073,324.76997 85.915622,315.99588 80.391399,299.61129 74.238246,284.38638 65.921109,269.9318 53.999262,258.48909 c 10.065708,-4.13036 20.946254,2.31573 30.802301,5.07009 12.188539,5.95027 24.175767,12.47645 34.858627,20.89579 6.15463,-14.03595 17.77027,-25.48597 32.55375,-29.99087 1.64762,-6.6202 3.96725,-14.6165 7.20388,-5.70509 -0.0502,-4.21905 15.72653,-21.65421 13.40856,-13.32294 -3.53387,10.37706 -2.158,16.13426 7.07745,6.67667 9.7558,-5.58824 -8.98551,14.80081 7.27723,12.35973 14.73472,4.18784 26.85935,15.74788 32.99285,29.62066 16.86082,-12.76293 36.50451,-24.52286 57.83474,-26.85862 14.20953,-1.01287 -5.64376,11.50194 -6.86571,17.02812 -10.11671,13.63123 -12.14371,32.95322 -26.36852,43.31208 -7.3925,7.30409 -22.14012,2.29169 -25.76149,12.35743 -5.45106,11.76155 -23.0543,21.80231 -2.36648,25.54292 26.80006,14.92126 45.93112,43.31317 48.32042,74.06491 0.47783,6.77904 0.29372,10.00541 0.35688,11.38424 -63.27417,0.18059 -126.55091,0.26539 -189.825912,0.38664 z"
       id="path1"
       sodipodi:nodetypes="cccccccccccccccccccccc" /><path
       d="m 342.8344,375.77136 c 22.56479,-13.56261 20.18562,-6.24017 7.90325,-16.15098 -18.35833,-13.80031 -19.18842,-64.31934 26.293,-63.94978 -0.15727,25.01102 -0.56481,109.69949 -0.79071,146.34072 l -57.80121,0.0184 c -0.0789,-27.42276 1.0468,-50.99962 24.39567,-66.25836 z m 67.54922,0.36452 c -22.41711,-13.80535 -20.1171,-6.45766 -7.72848,-16.23534 18.50619,-13.60137 19.88146,-64.1085 -25.6013,-64.22981 -0.11267,25.01126 -0.61914,109.69919 -0.7887,146.34073 l 57.79764,0.64221 c 0.37485,-27.42031 -0.49633,-51.00795 -23.67916,-66.51779 z"
       style="display:inline;fill:#000000;fill-rule:evenodd;stroke:#000000;stroke-width:2.9;stroke-dasharray:none;stroke-opacity:1"
       id="path1-3"
       inkscape:path-effect="#path-effect1"
       inkscape:original-d="m 342.8344,375.77136 c 22.56479,-13.56261 20.18562,-6.24017 7.90325,-16.15098 -18.35833,-13.80031 -19.18842,-64.31934 26.293,-63.94978 -0.15727,25.01102 -0.56481,109.69949 -0.79071,146.34072 l -57.80121,0.0184 c -0.0789,-27.42276 1.0468,-50.99962 24.39567,-66.25836 z"
       sodipodi:nodetypes="cccccc"
       transform="translate(-4,4)" /></g><path
     style="display:inline;fill:#000000"
     d="m 327.64936,210.0181 c -4.125,-2.90065 -13.73693,-8.92115 -21.35984,-13.37889 l -13.85983,-8.10499 h -41.25531 -41.25531 c -2.74895,0.33509 -5.30403,-1.62406 -5.26971,-4.14516 V 131.53422 78.679381 c -0.0863,-2.20078 2.07979,-4.29917 5.26971,-4.14516 h 74.73029 74.73028 c 3.2977,0.0118 5.39674,1.47917 5.26972,4.14516 v 51.772429 51.77243 c 0.0649,3.13586 -1.77328,3.84961 -4.2034,3.80998 l -18.23437,0.5 -18.23437,0.5 5.84453,13.90821 c 3.21449,7.64951 5.72822,14.00751 5.58606,14.12889 -0.14215,0.12137 -3.63345,-2.15258 -7.75845,-5.05322 z m -74,-55.98388 v -2.5 h -9 -9 v 2.5 2.5 h 9 9 z m 23,0 v -2.5 h -9 -9 v 2.5 2.5 h 9 9 z m 23,0 v -2.5 h -9 -9 v 2.5 2.5 h 9 9 z m 24,0 v -2.5 h -9.5 -9.5 v 2.5 2.5 h 9.5 9.5 z m 16,1.42857 c 0,-0.58929 -0.64286,-1.71429 -1.42858,-2.5 l -1.42857,-1.42857 h -4.57143 -4.57142 v 2.5 2.5 h 6 6 z m -101.18358,-24.17857 0.31642,-2.75 h -9.06642 -9.06642 v 2.45009 2.4501 l 5.75,0.3826 c 3.1625,0.21043 7.1,0.34538 8.75,0.2999 l 3,-0.0827 z m 23.18358,0.25 v -3 h -8.5 -8.5 v 3 3 h 8.5 8.5 z m 23,0 v -3 h -8.5 -8.5 v 3 3 h 8.5 8.5 z m 23,0 v -3 h -8.5 -8.5 v 3 3 h 8.5 8.5 z m 23.81642,0.25 -0.31642,-2.75 -8.75,-0.28894 -8.75,-0.28893 v 3.03893 3.03894 h 9.06642 9.06642 z m 14.18358,-0.3075 v -3.0575 l -4.25,0.3075 -4.47986,0.0776 -0.0866,2.97986 -0.31642,2.75 h 4.56642 4.56643 z m -93,-22.4425 v -2.5 h -9.5 -9.5 v 2.5 2.5 h 9.5 9.5 z m 23,0 v -2.5 h -9.5 -9.5 v 2.5 2.5 h 9.5 9.5 z m 23,0 v -2.5 h -9 -9 v 2.5 2.5 h 9 9 z m 23,0 v -2.5 h -9 -9 v 2.5 2.5 h 9 9 z m 17,1 v -1.5 h -1.5 c -0.825,0 -1.5,-0.45 -1.5,-1 v -1 h -4.5 -4.5 v 2.5 2.5 h 6 6 z m -218.06606,51.75 c 1.04761,-2.6125 4.15731,-10.15 6.91043,-16.75 l 5.00568,-12 -20.39977,-0.5 -20.399764,-0.5 c -3.66976,-0.11884 -4.58973,-1.68846 -4.55052,-4.55556 V 66.034221 4.5897733 c -0.95061,-3.314244 0.55326,-4.84341697 4.55555,-4.55555597 h 89.558814 89.5588 c 3.54941,0.03091 5.04297,1.75685697 4.85473,5.64396197 l -0.26394,31.6780187 -0.26395,31.678023 -34,0.5 -34,0.5 c -6.50381,0.45469 -8.27482,6.28624 -8.5,11.54047 v 26.479759 26.47977 H 184.59037 170.53138 L 153.34037,144.684 c -9.45506,5.58239 -20.86105,12.78239 -25.34665,16 -4.48561,3.21762 -8.41654,5.85022 -8.73541,5.85022 -0.31887,0 0.27737,-2.1375 1.32499,-4.75 z m 33.5607,-58.2256 c 0.35945,-1.63659 0.36865,-3.43659 0.0204,-3.999999 l -0.63312,-1.0244 h -9.44098 -9.44098 v 3.999999 4 h 9.42054 9.42055 z m 30.50536,-0.43463 v -3.410239 l -8.47583,-0.70603 c -4.66171,-0.38832 -9.16171,-0.44284 -10,-0.12115 l -1.52417,0.58488 v 3.531379 3.53139 h 10 10 z m -50,-22.589769 v -4 h -7.5 -7.5 v 3.43045 3.43044 l 2.25,0.43337 c 1.2375,0.23836 4.6125,0.49465 7.5,0.56955 l 5.25,0.13619 z m 30,0 v -4 h -8.5 -8.5 v 4 4 h 8.5 8.5 z m 30,-0.0404 v -4.04044 l -8.25,0.29044 -8.25,0.29045 -0.31037,3.75 -0.31036,3.75 h 8.56036 8.56037 z m 2,-24.95955 v -4 h -8.5 -8.5 v 4 4 h 8.5 8.5 z m 30,0 v -4 h -8.5 -8.5 v 4 4 h 8.5 8.5 z m 22,0.6094 v -3.39059 l -3.75,-0.47 c -4.842,-0.60687 -5.25,-0.31076 -5.25,3.8102 v 3.44099 h 4.5 4.5 z m -112,-1.6094 v -4 h -8.48095 -8.48095 l -0.6269,2.49776 c -0.34479,1.37377 -0.36749,3.17377 -0.0504,4 l 0.57647,1.50224 h 8.53138 8.53139 z m 30,0.5 v -3.5 h -8.5 -8.5 v 3.5 3.5 h 8.5 8.5 z m -23,-26.500004 v -4 h -8 -8 v 3.333334 c 0,1.833333 0.3,3.633333 0.66666,4 0.36667,0.366666 3.96667,0.666666 8,0.666666 h 7.33334 z m 30,0 v -4 h -8 -8 v 3.333334 c 0,1.833333 0.3,3.633333 0.66666,4 0.36667,0.366666 3.96667,0.666666 8,0.666666 h 7.33334 z m 30.5,0 v -3.5 l -7.75,-0.292064 -7.75,-0.292064 v 4.084128 4.084129 l 7.75,-0.292064 7.75,-0.292065 z m 30.31036,-0.25 0.31037,-3.75 h -8.06037 -8.06036 v 4.042065 4.042064 l 7.75,-0.292064 7.75,-0.292065 z"
     id="path2449"
     sodipodi:nodetypes="sscccccccccccccccsssccccccccccccccccccccccccccccccccccccsscccccccsccccccsscccccccccccccccccccccccccccccccccccccccccccccccccccccccccccccccccccccccccccccccccccccssccccccccsscccccccccccccccccccsssssccccccccsccssccccccccccccssccccccccccccccccccccccccccccccccccccccccssccccccccsccccccccccccccccccsssccccccssscccccccccccccccccccc" /><path
     style="fill:#ffffff;fill-opacity:1;fill-rule:evenodd;stroke:#ffffff;stroke-width:2.51186;stroke-dasharray:none;stroke-dashoffset:0;stroke-opacity:1"
     d="m 131.87814,32.149121 c -3.3858,-0.218813 -4.01897,-0.92842 -4.01897,-4.504121 v -2.667024 h 7.78675 7.78676 v 3.767785 3.767785 l -4.39575,-0.09293 c -2.41766,-0.05111 -5.63912,-0.173284 -7.15879,-0.271495 z"
     id="path2450" /><path
     style="fill:#ffffff;fill-opacity:1;fill-rule:evenodd;stroke:#ffffff;stroke-width:2.51186;stroke-dasharray:none;stroke-dashoffset:0;stroke-opacity:1"
     d="m 161.78129,32.138912 c -1.65119,-0.101559 -3.17368,-0.454431 -3.38331,-0.78416 -0.20963,-0.329728 -0.38461,-1.899392 -0.38884,-3.488141 l -0.008,-2.888635 h 7.78675 7.78676 v 3.767785 3.767785 l -4.39575,-0.09499 c -2.41766,-0.05224 -5.74672,-0.178084 -7.39792,-0.279643 z"
     id="path2451" /><path
     style="fill:#ffffff;fill-opacity:1;fill-rule:evenodd;stroke:#ffffff;stroke-width:2.51186;stroke-dasharray:none;stroke-dashoffset:0;stroke-opacity:1"
     d="m 188.64539,28.688452 -7.2e-4,-3.961662 6.90832,0.145047 c 3.79958,0.07977 7.19091,0.242231 7.53629,0.361011 0.41623,0.143147 0.62796,1.322297 0.62796,3.497146 v 3.28118 h -5.20478 c -2.86263,0 -6.25364,0.143762 -7.53557,0.31947 l -2.33079,0.31947 z"
     id="path2452" /><path
     style="fill:#ffffff;fill-opacity:1;fill-rule:evenodd;stroke:#ffffff;stroke-width:2.51186;stroke-dasharray:none;stroke-dashoffset:0;stroke-opacity:1"
     d="m 218.78838,28.672605 v -3.694629 h 7.8594 7.8594 l -0.3116,3.336917 c -0.17139,1.835305 -0.37363,3.389439 -0.44943,3.453632 -0.0758,0.06419 -3.4723,0.225163 -7.54779,0.357712 l -7.40998,0.240997 z"
     id="path2453" /><path
     style="fill:#ffffff;fill-opacity:1;fill-rule:evenodd;stroke:#ffffff;stroke-width:2.51186;stroke-dasharray:none;stroke-dashoffset:0;stroke-opacity:1"
     d="m 239.88798,56.412071 c 0,-3.62175 0.8129,-4.45485 3.95135,-4.04952 4.81944,0.62244 4.58896,0.43299 4.58896,3.77202 v 3.00466 h -4.27015 -4.27016 z"
     id="path2454" /><path
     style="fill:#ffffff;fill-opacity:1;fill-rule:evenodd;stroke:#ffffff;stroke-width:2.51186;stroke-dasharray:none;stroke-dashoffset:0;stroke-opacity:1"
     d="m 209.7457,55.371441 v -3.76778 h 8.28912 8.28913 v 3.76778 3.76779 h -8.28913 -8.28912 z"
     id="path2455" /><path
     style="fill:#ffffff;fill-opacity:1;fill-rule:evenodd;stroke:#ffffff;stroke-width:2.51186;stroke-dasharray:none;stroke-dashoffset:0;stroke-opacity:1"
     d="m 180.10579,55.371441 v -3.76778 h 8.03794 8.03794 v 3.76778 3.76779 h -8.03794 -8.03794 z"
     id="path2456" /><path
     style="fill:#ffffff;fill-opacity:1;fill-rule:evenodd;stroke:#ffffff;stroke-width:2.51186;stroke-dasharray:none;stroke-dashoffset:0;stroke-opacity:1"
     d="m 149.96351,54.869071 v -3.26541 h 8.28912 8.28913 v 3.26541 3.26541 h -8.28913 -8.28912 z"
     id="path2457" /><path
     style="fill:#ffffff;fill-opacity:1;fill-rule:evenodd;stroke:#ffffff;stroke-width:2.51186;stroke-dasharray:none;stroke-dashoffset:0;stroke-opacity:1"
     d="m 119.3143,56.866561 c -0.31539,-0.82952 -0.2967,-2.13227 0.0541,-3.76778 l 0.53612,-2.49987 h 8.2475 8.2475 v 3.76779 3.76778 h -8.30156 -8.30156 z"
     id="path2458" /><path
     style="fill:#ffffff;fill-opacity:1;fill-rule:evenodd;stroke:#ffffff;stroke-width:2.51186;stroke-dasharray:none;stroke-dashoffset:0;stroke-opacity:1"
     d="m 124.84494,83.921251 c -0.96706,-0.0967 -2.49302,-0.29679 -3.39101,-0.44474 l -1.6327,-0.26899 v -3.24265 -3.24265 h 7.28438 7.28439 v 3.76779 3.76778 l -3.89338,-0.0804 c -2.14136,-0.0442 -4.68462,-0.15949 -5.65168,-0.25615 z"
     id="path2459" /><path
     style="fill:#ffffff;fill-opacity:1;fill-rule:evenodd;stroke:#ffffff;stroke-width:2.51186;stroke-dasharray:none;stroke-dashoffset:0;stroke-opacity:1"
     d="m 147.95402,80.490011 v -3.76779 h 8.28913 8.28913 v 3.76779 3.76778 h -8.28913 -8.28913 z"
     id="path2460" /><path
     style="fill:#ffffff;fill-opacity:1;fill-rule:evenodd;stroke:#ffffff;stroke-width:2.51186;stroke-dasharray:none;stroke-dashoffset:0;stroke-opacity:1"
     d="m 178.0963,80.867241 0.25119,-3.39146 4.77253,-0.32055 c 2.62489,-0.1763 6.18544,-0.34585 7.91235,-0.37678 l 3.13982,-0.0562 v 3.76779 3.76778 l -8.16354,4.5e-4 -8.16353,4.5e-4 z"
     id="path2461" /><path
     style="fill:#ffffff;fill-opacity:1;fill-rule:evenodd;stroke:#ffffff;stroke-width:2.51186;stroke-dasharray:none;stroke-dashoffset:0;stroke-opacity:1"
     d="m 165.03465,102.8683 v -3.493839 l 1.81796,-0.34105 c 0.99988,-0.18758 5.04609,-0.0848 8.99157,0.22842 3.94549,0.31321 7.53571,0.56948 7.97828,0.56948 0.65545,0 0.80467,0.605549 0.80467,3.265409 v 3.26541 h -9.79624 -9.79624 z"
     id="path2462" /><path
     style="fill:#ffffff;fill-opacity:1;fill-rule:evenodd;stroke:#ffffff;stroke-width:2.51186;stroke-dasharray:none;stroke-dashoffset:0;stroke-opacity:1"
     d="m 134.89237,102.58326 v -3.778869 l 9.41946,0.13668 9.41946,0.13668 0.16823,1.477569 c 0.0925,0.81267 0.0222,2.45165 -0.15637,3.64219 l -0.32461,2.16462 h -9.26308 -9.26309 z"
     id="path2463" /><path
     style="fill:#ffffff;fill-opacity:1;fill-rule:evenodd;stroke:#ffffff;stroke-width:0.751116;stroke-dasharray:none;stroke-dashoffset:0;stroke-opacity:1"
     d="m 233.67816,109.04514 v -2.47868 h 9.46406 9.46406 v 2.47868 2.47868 h -9.46406 -9.46406 z"
     id="path2464" /><path
     style="fill:#ffffff;fill-opacity:1;fill-rule:evenodd;stroke:#ffffff;stroke-width:0.751116;stroke-dasharray:none;stroke-dashoffset:0;stroke-opacity:1"
     d="m 256.66231,109.04514 v -2.47868 h 9.46406 9.46406 v 2.47868 2.47868 h -9.46406 -9.46406 z"
     id="path2465" /><path
     style="fill:#ffffff;fill-opacity:1;fill-rule:evenodd;stroke:#ffffff;stroke-width:0.751116;stroke-dasharray:none;stroke-dashoffset:0;stroke-opacity:1"
     d="m 280.69802,109.04514 v -2.47868 h 8.93828 8.93828 v 2.47868 2.47868 h -8.93828 -8.93828 z"
     id="path2466" /><path
     style="fill:#ffffff;fill-opacity:1;fill-rule:evenodd;stroke:#ffffff;stroke-width:0.751116;stroke-dasharray:none;stroke-dashoffset:0;stroke-opacity:1"
     d="m 303.68217,109.04514 v -2.47868 h 8.93828 8.93828 v 2.47868 2.47868 h -8.93828 -8.93828 z"
     id="path2467" /><path
     style="fill:#ffffff;fill-opacity:1;fill-rule:evenodd;stroke:#ffffff;stroke-width:0.751116;stroke-dasharray:none;stroke-dashoffset:0;stroke-opacity:1"
     d="m 326.66632,109.04514 v -2.47868 h 4.43158 4.43159 v 0.58425 c 0,1.03516 0.73538,1.50613 2.36601,1.51529 l 0.63845,0.004 v 1.42712 1.42712 h -5.93381 -5.93382 z"
     id="path2468" /><path
     style="fill:#ffffff;fill-opacity:1;fill-rule:evenodd;stroke:#ffffff;stroke-width:0.751116;stroke-dasharray:none;stroke-dashoffset:0;stroke-opacity:1"
     d="m 336.69202,128.65576 c 9.6e-4,-0.0388 8.51121,-0.15672 8.84002,-0.15672 0.0343,0 0.0624,1.35201 0.0624,3.00447 v 3.00446 h -4.52341 -4.52342 z"
     id="path2469"
     sodipodi:nodetypes="ssscccs" /><path
     style="fill:#ffffff;fill-opacity:1;fill-rule:evenodd;stroke:#ffffff;stroke-width:0.751116;stroke-dasharray:none;stroke-dashoffset:0;stroke-opacity:1"
     d="m 313.74712,131.49738 v -3.01059 l 17.58831,0.32618 c 0.14284,0.003 0.29246,4.71166 0.2897,5.35697 l -0.001,0.338 h -8.93828 -8.93828 z"
     id="path2470"
     sodipodi:nodetypes="ccsccccc" /><path
     style="fill:#ffffff;fill-opacity:1;fill-rule:evenodd;stroke:#ffffff;stroke-width:0.751116;stroke-dasharray:none;stroke-dashoffset:0;stroke-opacity:1"
     d="m 290.76298,131.57862 v -2.92935 h 8.41249 8.4125 v 2.92935 2.92935 h -8.4125 -8.41249 z"
     id="path2471" /><path
     style="fill:#ffffff;fill-opacity:1;fill-rule:evenodd;stroke:#ffffff;stroke-width:0.751116;stroke-dasharray:none;stroke-dashoffset:0;stroke-opacity:1"
     d="m 267.77883,131.57862 v -2.92935 h 8.4125 8.41249 v 2.92935 2.92935 h -8.41249 -8.4125 z"
     id="path2472" /><path
     style="fill:#ffffff;fill-opacity:1;fill-rule:evenodd;stroke:#ffffff;stroke-width:0.751116;stroke-dasharray:none;stroke-dashoffset:0;stroke-opacity:1"
     d="m 244.79468,131.57862 v -2.92935 h 8.4125 8.4125 v 2.92935 2.92935 h -8.4125 -8.4125 z"
     id="path2473" /><path
     style="fill:#ffffff;fill-opacity:1;fill-rule:evenodd;stroke:#ffffff;stroke-width:0.751116;stroke-dasharray:none;stroke-dashoffset:0;stroke-opacity:1"
     d="m 228.79591,133.8822 c -1.32197,-0.0718 -3.65418,-0.21389 -5.1827,-0.31573 l -2.77913,-0.18517 -0.0414,-2.36602 -0.0414,-2.36601 h 8.94209 8.9421 l -0.009,0.41311 c -0.005,0.22721 -0.12469,1.39056 -0.26557,2.58521 -0.2464,2.08941 -0.27034,2.17605 -0.62902,2.27593 -0.51309,0.14288 -6.01284,0.11745 -8.9356,-0.0413 z"
     id="path2474" /><path
     style="fill:#ffffff;fill-opacity:1;fill-rule:evenodd;stroke:#ffffff;stroke-width:0.751116;stroke-dasharray:none;stroke-dashoffset:0;stroke-opacity:1"
     d="m 235.78129,154.03699 v -2.40358 h 8.86316 8.86317 v 2.40358 2.40357 h -8.86317 -8.86316 z"
     id="path2475" /><path
     style="fill:#ffffff;fill-opacity:1;fill-rule:evenodd;stroke:#ffffff;stroke-width:0.751116;stroke-dasharray:none;stroke-dashoffset:0;stroke-opacity:1"
     d="m 258.76543,154.03699 v -2.40358 h 8.93828 8.93828 v 2.40358 2.40357 h -8.93828 -8.93828 z"
     id="path2476" /><path
     style="fill:#ffffff;fill-opacity:1;fill-rule:evenodd;stroke:#ffffff;stroke-width:0.751116;stroke-dasharray:none;stroke-dashoffset:0;stroke-opacity:1"
     d="m 281.74958,154.03699 v -2.40358 h 8.93828 8.93828 v 2.40358 2.40357 h -8.93828 -8.93828 z"
     id="path2477" /><path
     style="fill:#ffffff;fill-opacity:1;fill-rule:evenodd;stroke:#ffffff;stroke-width:0.751116;stroke-dasharray:none;stroke-dashoffset:0;stroke-opacity:1"
     d="m 304.73373,154.03699 v -2.40358 h 9.38895 9.38895 v 2.40358 2.40357 h -9.38895 -9.38895 z"
     id="path2478" /><path
     style="fill:#ffffff;fill-opacity:1;fill-rule:evenodd;stroke:#ffffff;stroke-width:0.751116;stroke-dasharray:none;stroke-dashoffset:0;stroke-opacity:1"
     d="m 327.71788,154.03699 v -2.40358 h 4.56361 4.56361 l 0.99227,1.05185 c 1.15833,1.2279 1.74814,2.29049 1.74814,3.14941 v 0.60589 h -5.93381 -5.93382 z"
     id="path2479" /></svg>
