<?xml version="1.0" encoding="UTF-8" standalone="no"?>
<!-- Created with Inkscape (http://www.inkscape.org/) -->

<svg
   width="377.57034"
   height="382.90781"
   viewBox="0 0 377.57034 382.90781"
   version="1.1"
   id="svg1"
   xml:space="preserve"
   inkscape:export-filename="sttgoblinchat.svg"
   inkscape:export-xdpi="96"
   inkscape:export-ydpi="96"
   xmlns:inkscape="http://www.inkscape.org/namespaces/inkscape"
   xmlns:sodipodi="http://sodipodi.sourceforge.net/DTD/sodipodi-0.dtd"
   xmlns="http://www.w3.org/2000/svg"
   xmlns:svg="http://www.w3.org/2000/svg"><sodipodi:namedview
     id="namedview1"
     pagecolor="#ffffff"
     bordercolor="#000000"
     borderopacity="0.25"
     inkscape:showpageshadow="2"
     inkscape:pageopacity="0.0"
     inkscape:pagecheckerboard="0"
     inkscape:deskcolor="#d1d1d1"
     inkscape:document-units="px"
     showguides="true"><sodipodi:guide
       position="269.94867,6.8088158"
       orientation="0,-1"
       id="guide2"
       inkscape:locked="false" /><sodipodi:guide
       position="357.75576,256.01151"
       orientation="1,0"
       id="guide3"
       inkscape:locked="false" /><sodipodi:guide
       position="303.14716,203.56936"
       orientation="0,-1"
       id="guide4"
       inkscape:locked="false" /><sodipodi:guide
       position="165.15616,248.12154"
       orientation="0,-1"
       id="guide5"
       inkscape:locked="false" /><inkscape:page
       x="0"
       y="0"
       width="377.57034"
       height="382.90781"
       id="page2"
       margin="0"
       bleed="0" /></sodipodi:namedview><defs
     id="defs1"><inkscape:path-effect
       effect="mirror_symmetry"
       start_point="377.0422,295.67863"
       end_point="376.23612,445.0539"
       center_point="376.63916,370.36626"
       id="path-effect1"
       is_visible="true"
       lpeversion="1.2"
       lpesatellites=""
       mode="free"
       discard_orig_path="false"
       fuse_paths="false"
       oposite_fuse="false"
       split_items="false"
       split_open="false"
       link_styles="false" /></defs><g
     inkscape:label="Layer 1"
     inkscape:groupmode="layer"
     id="layer1"
     style="display:inline"
     transform="translate(-53.999264,-65.21186)"><path
       style="display:inline;fill:#000000"
       d="M 75.930161,432.5344 C 76.913494,396.18935 102.48521,362.40039 136.44208,349.93815 128.85862,343.1526 122.43645,335.1 118.80917,325.45832 102.29073,324.76997 85.915622,315.99588 80.391399,299.61129 74.238246,284.38638 65.921109,269.9318 53.999262,258.48909 c 10.065708,-4.13036 20.946254,2.31573 30.802301,5.07009 12.188539,5.95027 24.175767,12.47645 34.858627,20.89579 6.15463,-14.03595 17.77027,-25.48597 32.55375,-29.99087 1.64762,-6.6202 3.96725,-14.6165 7.20388,-5.70509 -0.0502,-4.21905 15.72653,-21.65421 13.40856,-13.32294 -3.53387,10.37706 -2.158,16.13426 7.07745,6.67667 9.7558,-5.58824 -8.98551,14.80081 7.27723,12.35973 14.73472,4.18784 26.85935,15.74788 32.99285,29.62066 16.86082,-12.76293 36.50451,-24.52286 57.83474,-26.85862 14.20953,-1.01287 -5.64376,11.50194 -6.86571,17.02812 -10.11671,13.63123 -12.14371,32.95322 -26.36852,43.31208 -7.3925,7.30409 -22.14012,2.29169 -25.76149,12.35743 -5.45106,11.76155 -23.0543,21.80231 -2.36648,25.54292 26.80006,14.92126 45.93112,43.31317 48.32042,74.06491 0.47783,6.77904 0.29372,10.00541 0.35688,11.38424 -63.27417,0.18059 -126.55091,0.26539 -189.825912,0.38664 z"
       id="path1"
       sodipodi:nodetypes="cccccccccccccccccccccc" /><path
       d="m 342.8344,375.77136 c 22.56479,-13.56261 20.18562,-6.24017 7.90325,-16.15098 -18.35833,-13.80031 -19.18842,-64.31934 26.293,-63.94978 -0.15727,25.01102 -0.56481,109.69949 -0.79071,146.34072 l -57.80121,0.0184 c -0.0789,-27.42276 1.0468,-50.99962 24.39567,-66.25836 z m 67.54922,0.36452 c -22.41711,-13.80535 -20.1171,-6.45766 -7.72848,-16.23534 18.50619,-13.60137 19.88146,-64.1085 -25.6013,-64.22981 -0.11267,25.01126 -0.61914,109.69919 -0.7887,146.34073 l 57.79764,0.64221 c 0.37485,-27.42031 -0.49633,-51.00795 -23.67916,-66.51779 z"
       style="display:inline;fill:#000000;fill-rule:evenodd;stroke:#000000;stroke-width:2.9;stroke-dasharray:none;stroke-opacity:1"
       id="path1-3"
       inkscape:path-effect="#path-effect1"
       inkscape:original-d="m 342.8344,375.77136 c 22.56479,-13.56261 20.18562,-6.24017 7.90325,-16.15098 -18.35833,-13.80031 -19.18842,-64.31934 26.293,-63.94978 -0.15727,25.01102 -0.56481,109.69949 -0.79071,146.34072 l -57.80121,0.0184 c -0.0789,-27.42276 1.0468,-50.99962 24.39567,-66.25836 z"
       sodipodi:nodetypes="cccccc"
       transform="translate(-4,4)" /><path
       d="m 199.80268,197.62241 -11.35423,-8.31182 C 171.59994,177.33082 156.41549,158.448 155.0313,137.16401 c -1.01579,-13.25874 0.99963,-26.54418 8.30636,-38.00989 11.974,-21.88731 36.97302,-35.82211 61.86865,-33.51521 21.72279,0.31287 43.58851,-1.27764 65.2208,0.24054 28.34299,3.57831 52.92756,29.16554 53.29801,58.02711 -30.94829,0.96417 -31.07952,0.7131 -46.88549,1.24069 -40.66869,0.38081 -58.26787,40.31123 -51.93194,69.90261 l -60.57071,34.48902 z"
       style="font-variation-settings:normal;display:inline;opacity:1;vector-effect:none;fill:#000000;fill-opacity:1;stroke-width:1;stroke-linecap:butt;stroke-linejoin:miter;stroke-miterlimit:4;stroke-dasharray:none;stroke-dashoffset:0;stroke-opacity:1;-inkscape-stroke:none;stop-color:#000000;stop-opacity:1"
       id="path1-4" /><path
       d="m 199.80268,197.62241 -11.35423,-8.31182 C 171.59994,177.33082 156.41549,158.448 155.0313,137.16401 c -1.01579,-13.25874 0.99963,-26.54418 8.30636,-38.00989 11.974,-21.88731 36.97302,-35.82211 61.86865,-33.51521 21.72279,0.31287 43.58851,-1.27764 65.2208,0.24054 28.34299,3.57831 52.92756,29.16554 53.29801,58.02711 -30.94829,0.96417 -31.07952,0.7131 -46.88549,1.24069 -40.66869,0.38081 -58.26787,40.31123 -51.93194,69.90261 l -60.57071,34.48902 z"
       style="font-variation-settings:normal;display:inline;opacity:1;vector-effect:none;fill:#000000;fill-opacity:1;stroke-width:1;stroke-linecap:butt;stroke-linejoin:miter;stroke-miterlimit:4;stroke-dasharray:none;stroke-dashoffset:0;stroke-opacity:1;-inkscape-stroke:none;stop-color:#000000;stop-opacity:1"
       id="path7" /><path
       d="m 315.91725,183.05471 c 9.87266,-7.8015 18.51456,-17.13246 22.91889,-28.97115 13.9151,-31.47955 -3.00621,-72.204283 -36.40131,-84.191803 -16.65441,-7.319813 -35.31465,-3.085955 -52.99255,-4.454106 -20.74169,0.867136 -43.74401,-3.24057 -62.01875,8.93194 -26.16251,13.982814 -38.63197,46.376739 -29.84036,73.704619 7.80737,25.87968 22.6969,32.5864 44.09418,44.03121 l -16.03673,37.43346 18.31935,-12.55839 c 0,0 0,0 35.38875,-20.39576 16.55473,0 51.00388,4.46988 76.56853,-13.53002 z"
       style="display:inline;fill:#000000;stroke-width:1.21243"
       id="path8"
       sodipodi:nodetypes="ccccccccccc" /></g></svg>
